<svg width="44" height="35" viewBox="0 0 44 35" fill="none" xmlns="http://www.w3.org/2000/svg">
<path d="M36.858 5.52991H35.8805C35.5406 5.52991 35.2657 5.80485 35.2657 6.14473C35.2657 6.48461 35.5406 6.75955 35.8805 6.75955H36.858C37.8295 6.75955 38.6206 7.55063 38.6206 8.5222V10.4771H30.897C30.5571 10.4771 30.2822 10.7521 30.2822 11.092C30.2822 11.4318 30.5571 11.7068 30.897 11.7068H38.6206V14.9251H26.4727C26.1328 14.9251 25.8578 15.2 25.8578 15.5399C25.8578 15.8798 26.1328 16.1547 26.4727 16.1547H38.6206V25.7161C38.6206 26.6876 37.8304 27.4787 36.858 27.4787H14.0337C13.6939 27.4787 13.4189 27.7536 13.4189 28.0935C13.4189 28.4334 13.6939 28.7083 14.0337 28.7083H36.858C38.5084 28.7083 39.8502 27.3657 39.8502 25.7152V8.52304C39.8502 6.87256 38.5084 5.52991 36.858 5.52991Z" fill="#013941"/>
<path d="M33.0012 6.57911L36.1107 3.46959C36.3511 3.22923 36.3511 2.84043 36.1107 2.60007C35.8704 2.35971 35.4816 2.35971 35.2412 2.60007L32.3113 5.52995H6.32361C4.67313 5.52995 3.33047 6.8726 3.33047 8.52308V25.7178C3.33047 27.3683 4.67313 28.7109 6.32361 28.7109H9.13035L7.06999 30.7713C6.82963 31.0116 6.82963 31.4004 7.06999 31.6408C7.18975 31.7606 7.34746 31.8213 7.50517 31.8213C7.66288 31.8213 7.81975 31.7614 7.94035 31.6408L33.0004 6.58079C33.0004 6.57995 33.0004 6.57995 33.0012 6.57911ZM10.8964 24.661C10.4857 25.0734 9.91722 25.3281 9.28891 25.3281C8.66059 25.3281 8.09216 25.0734 7.68144 24.661C7.26903 24.2503 7.01517 23.6819 7.01517 23.0544C7.01517 22.8191 7.0506 22.5922 7.11722 22.3789C7.12819 22.3426 7.14084 22.308 7.15349 22.2726C7.15349 22.2726 7.15349 22.2726 7.15349 22.2718C7.19144 22.168 7.23698 22.0677 7.29011 21.9707C7.36011 21.8416 7.44192 21.7193 7.53469 21.6072C7.58192 21.5515 7.62999 21.4984 7.68144 21.4469C8.09301 21.0354 8.66144 20.7807 9.28891 20.7807C9.91638 20.7807 10.4848 21.0354 10.8964 21.4469C10.9478 21.4984 10.9959 21.5515 11.0431 21.6072C11.1359 21.7193 11.2177 21.8416 11.2877 21.9707C11.3408 22.0677 11.3864 22.168 11.4243 22.2718C11.4243 22.2726 11.4243 22.2726 11.4243 22.2726C11.437 22.308 11.4496 22.3426 11.4606 22.3789C11.5272 22.5922 11.5626 22.8191 11.5626 23.0544C11.5626 23.6819 11.3088 24.2503 10.8964 24.661ZM27.3632 10.478H4.56096V8.52308C4.56096 7.55152 5.35204 6.76043 6.32361 6.76043H31.0808L27.3632 10.478Z" fill="#013941"/>
</svg>
