<svg width="134" height="141" viewBox="0 0 134 141" fill="none" xmlns="http://www.w3.org/2000/svg">
<path d="M96.2489 46.429H37.4824C37.0121 50.1095 35.3334 53.5299 32.7097 56.1536C30.086 58.7774 26.6656 60.456 22.985 60.9263V73.7227C26.6656 74.193 30.086 75.8716 32.7097 78.4953C35.3334 81.119 37.0121 84.5394 37.4824 88.22H96.2489C96.7192 84.5394 98.3978 81.119 101.022 78.4953C103.645 75.8716 107.066 74.193 110.746 73.7227V60.9263C107.066 60.456 103.645 58.7774 101.022 56.1536C98.3978 53.5299 96.7192 50.1095 96.2489 46.429ZM66.8656 81.9513C63.9727 81.9513 61.1448 81.0935 58.7394 79.4863C56.334 77.8791 54.4593 75.5946 53.3522 72.9219C52.2451 70.2492 51.9554 67.3083 52.5198 64.4709C53.0842 61.6336 54.4773 59.0273 56.5229 56.9817C58.5685 54.9361 61.1747 53.543 64.0121 52.9787C66.8494 52.4143 69.7904 52.7039 72.4631 53.811C75.1358 54.9181 77.4202 56.7929 79.0274 59.1982C80.6347 61.6036 81.4925 64.4316 81.4925 67.3245C81.4881 71.2024 79.9456 74.9202 77.2035 77.6624C74.4614 80.4045 70.7436 81.9469 66.8656 81.9513Z" fill="#A993E0"/>
<path d="M66.8657 77.7722C72.6358 77.7722 77.3134 73.0946 77.3134 67.3245C77.3134 61.5543 72.6358 56.8767 66.8657 56.8767C61.0955 56.8767 56.4179 61.5543 56.4179 67.3245C56.4179 73.0946 61.0955 77.7722 66.8657 77.7722Z" fill="#A993E0"/>
<path d="M14.6269 38.0708V96.5783H119.104V38.0708H14.6269ZM18.806 44.3395C18.806 43.7853 19.0261 43.2538 19.418 42.8619C19.8099 42.4701 20.3414 42.2499 20.8955 42.2499H27.1642V46.429H22.9851V50.6081H18.806V44.3395ZM27.1642 92.3992H20.8955C20.3414 92.3992 19.8099 92.179 19.418 91.7871C19.0261 91.3953 18.806 90.8638 18.806 90.3096V84.0409H22.9851V88.2201H27.1642V92.3992ZM114.925 90.3096C114.925 90.8638 114.705 91.3953 114.313 91.7871C113.922 92.179 113.39 92.3992 112.836 92.3992H106.567V88.2201H110.746V84.0409H114.925V90.3096ZM114.925 75.6827C114.925 76.2369 114.705 76.7684 114.313 77.1603C113.922 77.5521 113.39 77.7723 112.836 77.7723C109.512 77.7756 106.325 79.0976 103.974 81.4481C101.624 83.7985 100.302 86.9855 100.299 90.3096C100.299 90.8638 100.078 91.3953 99.6865 91.7871C99.2946 92.179 98.7632 92.3992 98.209 92.3992H35.5224C34.9682 92.3992 34.4367 92.179 34.0449 91.7871C33.653 91.3953 33.4329 90.8638 33.4329 90.3096C33.4295 86.9855 32.1076 83.7985 29.7571 81.4481C27.4066 79.0976 24.2196 77.7756 20.8955 77.7723C20.3414 77.7723 19.8099 77.5521 19.418 77.1603C19.0261 76.7684 18.806 76.2369 18.806 75.6827V58.9663C18.806 58.4121 19.0261 57.8807 19.418 57.4888C19.8099 57.0969 20.3414 56.8768 20.8955 56.8768C24.2196 56.8735 27.4066 55.5515 29.7571 53.201C32.1076 50.8505 33.4295 47.6635 33.4329 44.3395C33.4329 43.7853 33.653 43.2538 34.0449 42.8619C34.4367 42.4701 34.9682 42.2499 35.5224 42.2499H98.209C98.7632 42.2499 99.2946 42.4701 99.6865 42.8619C100.078 43.2538 100.299 43.7853 100.299 44.3395C100.302 47.6635 101.624 50.8505 103.974 53.201C106.325 55.5515 109.512 56.8735 112.836 56.8768C113.39 56.8768 113.922 57.0969 114.313 57.4888C114.705 57.8807 114.925 58.4121 114.925 58.9663V75.6827ZM114.925 50.6081H110.746V46.429H106.567V42.2499H112.836C113.39 42.2499 113.922 42.4701 114.313 42.8619C114.705 43.2538 114.925 43.7853 114.925 44.3395V50.6081Z" fill="#A993E0"/>
<path d="M66.8657 15.0857C73.8839 15.0942 80.8289 16.5118 87.289 19.2544L78.469 23.6633L80.337 27.4036L92.8743 21.1349C93.1209 21.0133 93.3411 20.8442 93.5222 20.6373C93.7033 20.4304 93.8417 20.1898 93.9297 19.9293C94.0176 19.6688 94.0533 19.3935 94.0346 19.1192C94.0159 18.8449 93.9433 18.577 93.8209 18.3308L87.5523 5.79346L83.812 7.66152L87.3642 14.766C79.4882 11.6902 71.0213 10.4249 62.5902 11.0637C54.1591 11.7024 45.9795 14.2289 38.6567 18.4561L40.7463 22.0711C48.6877 17.4881 57.6967 15.0787 66.8657 15.0857Z" fill="#A993E0"/>
<path d="M92.9851 114.103L90.8955 110.488C83.886 114.53 76.0334 116.888 67.9569 117.377C59.8804 117.866 51.8007 116.472 44.3549 113.305L53.1749 108.896L51.3069 105.156L38.7695 111.424C38.5239 111.547 38.3048 111.717 38.1247 111.924C37.9447 112.131 37.8073 112.372 37.7204 112.633C37.6334 112.893 37.5987 113.168 37.6181 113.442C37.6375 113.716 37.7107 113.983 37.8334 114.229L44.1021 126.766L47.8424 124.898L44.2901 117.793C52.1644 120.867 60.629 122.131 69.0578 121.493C77.4865 120.854 85.6639 118.329 92.9851 114.103Z" fill="#A993E0"/>
</svg>
