<svg width="108" height="31" viewBox="0 0 108 31" fill="none" xmlns="http://www.w3.org/2000/svg">
<g clip-path="url(#clip0_141_876)">
<path d="M97.0902 21.7294C96.2879 21.7294 95.5604 21.6003 94.9077 21.3419C94.255 21.0699 93.6906 20.6891 93.2144 20.1995C92.7386 19.6964 92.3782 19.1048 92.1332 18.4249C91.8886 17.7313 91.7661 16.963 91.7661 16.1198C91.7661 14.9775 91.9839 13.9916 92.4191 13.162C92.8678 12.3189 93.4933 11.6661 94.2956 11.2037C95.1117 10.7277 96.0704 10.4897 97.1718 10.4897C98.0831 10.4897 98.8922 10.6597 99.5992 10.9997C100.307 11.3397 100.871 11.8157 101.292 12.4276C101.728 13.026 101.966 13.7264 102.006 14.5287H99.5177C99.4496 14.1071 99.3002 13.7535 99.069 13.468C98.8513 13.1824 98.5724 12.9648 98.2325 12.8152C97.8926 12.6656 97.5187 12.5908 97.1107 12.5908C96.5258 12.5908 96.0228 12.7404 95.6013 13.0396C95.1795 13.3252 94.86 13.7332 94.6426 14.2635C94.4385 14.7939 94.3365 15.4126 94.3365 16.1198C94.3365 16.8949 94.452 17.5409 94.6832 18.0577C94.9144 18.5745 95.2339 18.9688 95.6419 19.2408C96.0634 19.4992 96.5462 19.6284 97.0902 19.6284C97.5664 19.6284 97.9811 19.5468 98.3345 19.3836C98.6882 19.2068 98.967 18.9688 99.171 18.6697C99.3885 18.3569 99.5177 18.0033 99.5586 17.6089H102.047C101.993 18.4384 101.748 19.166 101.313 19.7916C100.878 20.4035 100.3 20.8795 99.5788 21.2195C98.8583 21.5595 98.0285 21.7294 97.0902 21.7294Z" fill="#013941"/>
<path d="M87.9565 21.5459V10.6938H90.5062V21.5459H87.9565ZM87.9565 9.16392V6.67529H90.5062V9.16392H87.9565Z" fill="#013941"/>
<path d="M84.5483 21.5457C83.8819 21.5457 83.3584 21.4505 82.9776 21.2602C82.6104 21.0562 82.3521 20.7706 82.2024 20.4034C82.0531 20.0363 81.9782 19.5943 81.9782 19.0775V12.7539H79.9792V10.6936H81.9782V7.63382L84.5077 7.36865V10.6936H86.8127V12.7539H84.5077V18.6083C84.5077 18.9483 84.5826 19.1795 84.7319 19.3019C84.8816 19.4107 85.1128 19.4651 85.4255 19.4651H86.8127V21.5457H84.5483Z" fill="#013941"/>
<path d="M69.5482 21.5459V10.6937H71.9962L72.0982 12.754H72.2207C72.5334 11.9924 73.0092 11.4281 73.6485 11.0609C74.2874 10.6801 75.0015 10.4897 75.7904 10.4897C76.3344 10.4897 76.8374 10.5781 77.2998 10.7549C77.7756 10.9181 78.1837 11.1833 78.5236 11.5505C78.8773 11.9041 79.1491 12.3732 79.3397 12.958C79.5437 13.5292 79.6457 14.2227 79.6457 15.0387V21.5459H77.0958V15.5894C77.0958 14.9095 77.0142 14.3519 76.8511 13.9168C76.6877 13.468 76.4364 13.1348 76.0961 12.9172C75.7699 12.6996 75.3414 12.5908 74.8112 12.5908C74.2401 12.5908 73.7505 12.7268 73.3425 12.9988C72.9482 13.2708 72.6421 13.6312 72.4244 14.0799C72.2069 14.5287 72.0982 15.0251 72.0982 15.569V21.5459H69.5482Z" fill="#013941"/>
<path d="M61.3468 21.7294C60.6941 21.7294 60.0958 21.6138 59.5518 21.3827C59.0216 21.1379 58.5592 20.7775 58.1646 20.3015C57.784 19.8256 57.4914 19.2408 57.2877 18.5472C57.0837 17.8401 56.9817 17.0309 56.9817 16.1198C56.9817 14.8823 57.1585 13.8487 57.5119 13.0192C57.879 12.176 58.3891 11.5437 59.0418 11.1221C59.7082 10.7005 60.4766 10.4897 61.3468 10.4897C61.9454 10.4897 62.4756 10.5849 62.938 10.7753C63.4139 10.9521 63.8219 11.2037 64.1618 11.5301C64.5018 11.8565 64.7601 12.2441 64.937 12.6928H65.0799L65.1819 10.6937H67.6296V21.5459H65.0799V19.5264H64.937C64.6786 20.1928 64.2367 20.7299 63.6112 21.1379C62.9857 21.5323 62.231 21.7294 61.3468 21.7294ZM62.3058 19.6488C62.9175 19.6488 63.4209 19.506 63.8152 19.2204C64.2232 18.9348 64.5293 18.5676 64.733 18.1189C64.937 17.6565 65.039 17.1737 65.039 16.6706V15.5486C65.039 15.0319 64.937 14.5491 64.733 14.1003C64.5293 13.638 64.2232 13.2708 63.8152 12.9988C63.4209 12.7132 62.9175 12.5704 62.3058 12.5704C61.7618 12.5704 61.2857 12.6996 60.8776 12.958C60.4699 13.2164 60.1501 13.6108 59.9189 14.1411C59.6877 14.6579 59.5723 15.3174 59.5723 16.1198C59.5723 16.8949 59.6877 17.5477 59.9189 18.0781C60.1501 18.6084 60.4699 19.0028 60.8776 19.2612C61.2857 19.5196 61.7618 19.6488 62.3058 19.6488Z" fill="#013941"/>
<path d="M53.1719 21.5459V6.67529H55.7218V21.5459H53.1719Z" fill="#013941"/>
<path d="M49.764 21.5457C49.0976 21.5457 48.5741 21.4505 48.1932 21.2602C47.8261 21.0562 47.5677 20.7706 47.418 20.4034C47.2684 20.0363 47.1936 19.5943 47.1936 19.0775V12.7539H45.1946V10.6936H47.1936V7.63382L49.7231 7.36865V10.6936H52.0281V12.7539H49.7231V18.6083C49.7231 18.9483 49.7979 19.1795 49.9475 19.3019C50.0969 19.4107 50.3281 19.4651 50.6412 19.4651H52.0281V21.5457H49.764Z" fill="#013941"/>
<path d="M32.5013 21.5459L37.6214 6.67529H41.4157L46.5357 21.5459H43.7411L42.6193 18.2821H36.4181L35.3164 21.5459H32.5013ZM37.0707 16.2015H41.9868L40.518 12.0198L39.5798 9.14352H39.4778L38.5191 12.0198L37.0707 16.2015Z" fill="#013941"/>
<path fill-rule="evenodd" clip-rule="evenodd" d="M27.835 15.1033C27.835 22.6938 21.6816 28.8472 14.0911 28.8472C6.50051 28.8472 0.347168 22.6938 0.347168 15.1033C0.347168 7.51272 6.50051 1.35938 14.0911 1.35938C21.6816 1.35938 27.835 7.51272 27.835 15.1033ZM14.0911 27.6758C21.0347 27.6758 26.6636 22.0469 26.6636 15.1033C26.6636 8.15966 21.0347 2.53073 14.0911 2.53073C7.14746 2.53073 1.51852 8.15966 1.51852 15.1033C1.51852 22.0469 7.14746 27.6758 14.0911 27.6758Z" fill="#013941"/>
<g filter="url(#filter0_d_141_876)">
<path d="M14.5112 6.44702C14.3462 6.05086 13.8094 6.05086 13.6444 6.44702C11.6331 11.2758 7.89103 14.2191 7.26669 14.6859C7.00143 14.8842 7.00143 15.296 7.26669 15.4943C7.89103 15.9611 11.6331 18.9044 13.6444 23.7331C13.8094 24.1293 14.3462 24.1293 14.5112 23.7331C16.5226 18.9044 20.2646 15.9611 20.889 15.4943C21.1542 15.296 21.1542 14.8842 20.889 14.6859C20.2646 14.2191 16.5226 11.2758 14.5112 6.44702Z" fill="#013941"/>
</g>
</g>
<defs>
<filter id="filter0_d_141_876" x="2.48517" y="2.56976" width="23.1853" height="27.0455" filterUnits="userSpaceOnUse" color-interpolation-filters="sRGB">
<feFlood flood-opacity="0" result="BackgroundImageFix"/>
<feColorMatrix in="SourceAlpha" type="matrix" values="0 0 0 0 0 0 0 0 0 0 0 0 0 0 0 0 0 0 127 0" result="hardAlpha"/>
<feOffset dy="1.00244"/>
<feGaussianBlur stdDeviation="2.29129"/>
<feComposite in2="hardAlpha" operator="out"/>
<feColorMatrix type="matrix" values="0 0 0 0 0 0 0 0 0 0 0 0 0 0 0 0 0 0 0.21 0"/>
<feBlend mode="normal" in2="BackgroundImageFix" result="effect1_dropShadow_141_876"/>
<feBlend mode="normal" in="SourceGraphic" in2="effect1_dropShadow_141_876" result="shape"/>
</filter>
<clipPath id="clip0_141_876">
<rect width="107" height="30" fill="white" transform="translate(0.347168 0.603516)"/>
</clipPath>
</defs>
</svg>
