<svg width="93" height="31" viewBox="0 0 93 31" fill="none" xmlns="http://www.w3.org/2000/svg">
<g clip-path="url(#clip0_141_834)">
<path d="M35.8663 22.3484H27.904V8.16016H35.443C36.53 8.16016 37.4263 8.28722 38.1323 8.54136C38.8523 8.78136 39.3886 9.16252 39.7416 9.68489C40.0946 10.1931 40.271 10.8496 40.271 11.6543C40.271 12.5437 40.031 13.2496 39.551 13.7719C39.071 14.2943 38.344 14.5978 37.37 14.6825V14.9578C38.57 15.0002 39.4593 15.3461 40.0383 15.9955C40.631 16.6449 40.9276 17.4496 40.9276 18.4096C40.9276 19.2284 40.744 19.9343 40.377 20.5272C40.024 21.1202 39.4733 21.5719 38.7253 21.8825C37.977 22.1931 37.024 22.3484 35.8663 22.3484ZM31.8852 16.6519V18.7696H35.7183C36.0993 18.7696 36.3886 18.7131 36.5863 18.6002C36.784 18.4872 36.883 18.1978 36.883 17.7319C36.883 17.2519 36.791 16.9555 36.6076 16.8425C36.424 16.7155 36.1276 16.6519 35.7183 16.6519H31.8852ZM31.8852 11.739V13.5602H35.231C35.6406 13.5602 35.9156 13.4967 36.057 13.3696C36.2123 13.2425 36.29 13.0025 36.29 12.6496C36.29 12.2684 36.1983 12.0214 36.0146 11.9084C35.8453 11.7955 35.5556 11.739 35.1463 11.739H31.8852ZM46.9276 22.5602C45.756 22.5602 44.7536 22.3414 43.9206 21.9037C43.102 21.4519 42.4736 20.8167 42.036 19.9978C41.6126 19.1649 41.4006 18.1696 41.4006 17.0119C41.4006 15.8119 41.6196 14.7814 42.0573 13.9202C42.495 13.059 43.1373 12.4025 43.9843 11.9508C44.8313 11.4849 45.855 11.2519 47.055 11.2519C48.2266 11.2519 49.2006 11.4637 49.9773 11.8872C50.7676 12.3108 51.3536 12.8967 51.735 13.6449C52.13 14.379 52.3276 15.2331 52.3276 16.2072C52.3276 16.5037 52.3066 16.8002 52.2643 17.0967C52.222 17.3931 52.1866 17.6331 52.1583 17.8167H43.095V15.6567H48.7066L48.5373 15.7625C48.5513 15.5084 48.509 15.2825 48.41 15.0849C48.3253 14.8731 48.156 14.7037 47.902 14.5767C47.662 14.4496 47.309 14.3861 46.843 14.3861C46.1936 14.3861 45.742 14.5061 45.4876 14.7461C45.2336 14.9719 45.1066 15.339 45.1066 15.8472V17.3508C45.1066 17.8731 45.149 18.2755 45.2336 18.5578C45.3183 18.8261 45.495 19.0096 45.763 19.1084C46.0313 19.2072 46.4406 19.2567 46.9913 19.2567C47.4713 19.2567 47.803 19.2072 47.9866 19.1084C48.17 18.9955 48.262 18.819 48.262 18.579V18.5367H52.2006V18.7908C52.2006 19.5249 51.982 20.1743 51.5443 20.739C51.1206 21.3037 50.5136 21.7484 49.723 22.0731C48.9466 22.3978 48.015 22.5602 46.9276 22.5602ZM57.174 22.3484H53.214V11.4637H56.92V14.5555L57.174 14.6614V22.3484ZM57.174 15.4661H56.3693V13.1155H57.1106C57.421 12.579 57.8306 12.1343 58.3386 11.7814C58.861 11.4284 59.4823 11.2519 60.2023 11.2519C60.9083 11.2519 61.4656 11.3931 61.8753 11.6755C62.2846 11.9578 62.581 12.3602 62.7646 12.8825C62.9483 13.4049 63.04 14.0261 63.04 14.7461V16.7155H59.0586V15.6355C59.0586 15.2261 59.0023 14.9508 58.8893 14.8096C58.7763 14.6684 58.5363 14.5978 58.1693 14.5978C57.8446 14.5978 57.5976 14.6472 57.4283 14.7461C57.2586 14.8308 57.174 15.0708 57.174 15.4661ZM67.7003 22.3484H63.7403V8.16016H67.7003V22.3484ZM72.9323 10.4896H68.9723V8.16016H72.9323V10.4896ZM72.9536 22.3484H68.9723V11.4637H72.9536V22.3484ZM85.5546 22.3484H81.5733V16.2072C81.5733 15.6284 81.4673 15.2261 81.2556 15.0002C81.058 14.7743 80.6063 14.6614 79.9003 14.6614C79.4626 14.6614 79.117 14.7037 78.8626 14.7884C78.6226 14.8731 78.4463 15.0214 78.3333 15.2331C78.2346 15.4449 78.185 15.7484 78.185 16.1437H77.5496V13.1155H78.1216C78.3193 12.7061 78.5946 12.3672 78.9473 12.099C79.3003 11.8167 79.7096 11.6049 80.1756 11.4637C80.6416 11.3225 81.1426 11.2519 81.6793 11.2519C82.625 11.2519 83.3803 11.4425 83.945 11.8237C84.5096 12.1908 84.9193 12.6919 85.1733 13.3272C85.4273 13.9484 85.5546 14.6331 85.5546 15.3814V22.3484ZM78.185 22.3484H74.225V11.4637H77.931V14.4496L78.185 14.5555V22.3484ZM91.48 22.3484H86.7366V17.9649H91.48V22.3484Z" fill="#013941"/>
<path d="M17.4571 3.25049H5.10412C4.61681 3.25049 4.22177 2.85545 4.22177 2.36813V1.48578C4.22177 0.998471 4.61681 0.603428 5.10412 0.603428H17.4571C17.9444 0.603428 18.3394 0.998471 18.3394 1.48578V2.36813C18.3394 2.85545 17.9444 3.25049 17.4571 3.25049Z" fill="#013941"/>
<path d="M17.4571 30.6035H5.10412C4.61681 30.6035 4.22177 30.2085 4.22177 29.7212V28.8388C4.22177 28.3515 4.61681 27.9565 5.10412 27.9565H17.4571C17.9444 27.9565 18.3394 28.3515 18.3394 28.8388V29.7212C18.3394 30.2085 17.9444 30.6035 17.4571 30.6035Z" fill="#013941"/>
<path fill-rule="evenodd" clip-rule="evenodd" d="M18.3927 13.0101C18.7373 13.3547 18.7373 13.9133 18.3927 14.2579L11.4631 21.1875C11.1186 21.5321 10.5599 21.5321 10.2153 21.1875L5.05041 16.0226C4.70581 15.678 4.70581 15.1194 5.05041 14.7748L6.92215 12.903C7.26675 12.5584 7.82541 12.5584 8.17001 12.903L10.8392 15.5723L15.2731 11.1383C15.6177 10.7937 16.1764 10.7937 16.521 11.1383L18.3927 13.0101Z" fill="#013941"/>
</g>
<defs>
<clipPath id="clip0_141_834">
<rect width="92" height="30" fill="white" transform="translate(0.692291 0.603516)"/>
</clipPath>
</defs>
</svg>
