<svg width="72" height="31" viewBox="0 0 72 31" fill="none" xmlns="http://www.w3.org/2000/svg">
<path opacity="0.7" fill-rule="evenodd" clip-rule="evenodd" d="M2.51305 15.266H10.7053L18.8975 2.85352H10.7053L2.51305 15.266ZM18.897 27.6787H10.7046L2.5124 15.2662H10.7046L18.897 27.6787Z" fill="#013941"/>
<path d="M8.71984 15.266H16.912L8.71984 2.85352H0.527611L8.71984 15.266Z" fill="#013941"/>
<path d="M8.71946 27.6787H0.527229L8.71946 15.2661H16.9115L8.71946 27.6787Z" fill="#013941"/>
<path d="M22.9525 15.1497C22.9525 14.029 23.2028 13.028 23.7033 12.1467C24.2145 11.2545 24.9054 10.5636 25.776 10.074C26.6574 9.57349 27.6418 9.32324 28.7298 9.32324C30.003 9.32324 31.1182 9.64965 32.0757 10.3025C33.0331 10.9553 33.7022 11.8584 34.0831 13.0117H31.4555C31.1943 12.4677 30.8244 12.0597 30.3458 11.7877C29.8778 11.5157 29.3339 11.3797 28.7137 11.3797C28.05 11.3797 27.457 11.5374 26.9347 11.853C26.4232 12.1576 26.0207 12.5928 25.7269 13.1586C25.4442 13.7244 25.3025 14.3881 25.3025 15.1497C25.3025 15.9005 25.4442 16.5642 25.7269 17.141C26.0207 17.7067 26.4232 18.1473 26.9347 18.4629C27.457 18.7675 28.05 18.9199 28.7137 18.9199C29.3339 18.9199 29.8778 18.7837 30.3458 18.5117C30.8244 18.229 31.1943 17.8154 31.4555 17.2713H34.0831C33.7022 18.4357 33.0331 19.344 32.0757 19.9969C31.129 20.639 30.0137 20.9597 28.7298 20.9597C27.6418 20.9597 26.6574 20.715 25.776 20.2254C24.9054 19.7249 24.2145 19.034 23.7033 18.1527C23.2028 17.2713 22.9525 16.2704 22.9525 15.1497Z" fill="#013941"/>
<path d="M39.3967 21.0088C38.5264 21.0088 37.743 20.8183 37.0467 20.4376C36.3504 20.0459 35.8008 19.4964 35.3983 18.7893C35.0066 18.0819 34.8107 17.2658 34.8107 16.341C34.8107 15.4162 35.012 14.6002 35.4145 13.8929C35.8281 13.1857 36.3884 12.6417 37.0955 12.2609C37.8029 11.8692 38.5917 11.6733 39.462 11.6733C40.3326 11.6733 41.1215 11.8692 41.8285 12.2609C42.5359 12.6417 43.0909 13.1857 43.4934 13.8929C43.9067 14.6002 44.1136 15.4162 44.1136 16.341C44.1136 17.2658 43.9013 18.0819 43.4769 18.7893C43.0636 19.4964 42.4979 20.0459 41.7797 20.4376C41.0723 20.8183 40.2781 21.0088 39.3967 21.0088ZM39.3967 19.0178C39.8103 19.0178 40.1966 18.9198 40.5557 18.724C40.9256 18.517 41.2194 18.2125 41.4368 17.8099C41.6545 17.4074 41.7633 16.9178 41.7633 16.341C41.7633 15.4815 41.5348 14.8232 41.0777 14.3663C40.6318 13.8984 40.0822 13.6645 39.4294 13.6645C38.7768 13.6645 38.2272 13.8984 37.781 14.3663C37.3458 14.8232 37.1281 15.4815 37.1281 16.341C37.1281 17.2005 37.3405 17.8642 37.7648 18.3322C38.2 18.7893 38.7441 19.0178 39.3967 19.0178Z" fill="#013941"/>
<path d="M47.4217 19.0505H49.9154V20.8621H45.1366V8.78467H47.4217V19.0505Z" fill="#013941"/>
<path d="M50.5245 16.3084C50.5245 15.3945 50.7042 14.5839 51.063 13.8766C51.4332 13.1694 51.9282 12.6254 52.5484 12.2445C53.1795 11.8638 53.8812 11.6733 54.6538 11.6733C55.3283 11.6733 55.9159 11.8093 56.4163 12.0814C56.9278 12.3534 57.3357 12.6961 57.6403 13.1096V11.8202H59.9416V20.8618H57.6403V19.5398C57.3465 19.9642 56.9386 20.3179 56.4163 20.6006C55.9051 20.8728 55.3121 21.0088 54.6374 21.0088C53.8758 21.0088 53.1795 20.813 52.5484 20.4212C51.9282 20.0295 51.4332 19.4799 51.063 18.7729C50.7042 18.0547 50.5245 17.2332 50.5245 16.3084ZM57.6403 16.341C57.6403 15.7861 57.5316 15.3128 57.3139 14.9211C57.0964 14.5186 56.8026 14.2139 56.4328 14.0072C56.0626 13.7896 55.6655 13.6808 55.2411 13.6808C54.8168 13.6808 54.4253 13.7841 54.0662 13.9909C53.7072 14.1976 53.4134 14.5023 53.1849 14.9048C52.9671 15.2965 52.8584 15.7644 52.8584 16.3084C52.8584 16.8524 52.9671 17.3311 53.1849 17.7447C53.4134 18.1472 53.7072 18.4572 54.0662 18.6749C54.4361 18.8926 54.8278 19.0014 55.2411 19.0014C55.6655 19.0014 56.0626 18.898 56.4328 18.6911C56.8026 18.4737 57.0964 18.1691 57.3139 17.7774C57.5316 17.3746 57.6403 16.896 57.6403 16.341Z" fill="#013941"/>
<path d="M63.805 13.1423C64.0988 12.7071 64.5014 12.3535 65.0129 12.0814C65.5352 11.8094 66.1282 11.6734 66.7918 11.6734C67.5642 11.6734 68.2608 11.8638 68.8807 12.2446C69.512 12.6255 70.0071 13.1695 70.3662 13.8767C70.736 14.5731 70.9208 15.3837 70.9208 16.3085C70.9208 17.2333 70.736 18.0548 70.3662 18.7729C70.0071 19.48 69.512 20.0296 68.8807 20.4213C68.2608 20.813 67.5642 21.0089 66.7918 21.0089C66.1171 21.0089 65.5241 20.8783 65.0129 20.6172C64.5124 20.3452 64.1099 19.9969 63.805 19.5726V20.8619H61.5203V8.78467H63.805V13.1423ZM68.5869 16.3085C68.5869 15.7645 68.4728 15.2966 68.2443 14.9049C68.0266 14.5023 67.7331 14.1977 67.3629 13.991C67.0039 13.7842 66.6124 13.6809 66.188 13.6809C65.7745 13.6809 65.3827 13.7897 65.0129 14.0073C64.6538 14.214 64.36 14.5187 64.1315 14.9212C63.914 15.3238 63.805 15.7971 63.805 16.3411C63.805 16.8852 63.914 17.3585 64.1315 17.761C64.36 18.1635 64.6538 18.4737 65.0129 18.6912C65.3827 18.8981 65.7745 19.0014 66.188 19.0014C66.6124 19.0014 67.0039 18.8927 67.3629 18.675C67.7331 18.4573 68.0266 18.1473 68.2443 17.7448C68.4728 17.342 68.5869 16.8634 68.5869 16.3085Z" fill="#013941"/>
</svg>
