<svg width="66" height="50" viewBox="0 0 66 50" fill="none" xmlns="http://www.w3.org/2000/svg">
<path d="M8.08455 29.5387L25.5393 5.55475C25.823 5.16412 26.3066 4.97346 26.7786 5.06647L36.7 6.85914L19.259 32.18L8.08455 29.5387ZM18.75 34.6098L7.3661 31.9196V38.4232C7.36378 38.958 7.70325 39.4323 8.21015 39.6021L20.703 43.7618L18.75 34.6098ZM43.5387 12.6229L38.8698 8.06564L21.1246 33.8466L23.0963 43.0847L43.6879 14.2365C44.046 13.7366 43.9805 13.0507 43.5387 12.6229ZM43.8991 18.1661L37.4884 27.1827L44.308 33.3839L57.1545 29.1172L43.8991 18.1661ZM36.0378 29.2149L32.6152 34.014L43.5902 43.4259L42.802 35.3646L36.0378 29.2149ZM45.3384 35.6256L46.101 43.6262L57.3177 39.2851C57.7943 39.1014 58.1082 38.6434 58.1105 38.1318V31.3794L45.3384 35.6256Z" fill="#00D47E"/>
</svg>
