<svg width="118" height="31" viewBox="0 0 118 31" fill="none" xmlns="http://www.w3.org/2000/svg">
<g clip-path="url(#clip0_141_824)">
<path d="M31.863 22.172C30.861 22.172 29.9663 21.9286 29.179 21.4419C28.3917 20.9552 27.769 20.2896 27.311 19.445C26.8529 18.6005 26.6239 17.6414 26.6239 16.5678C26.6239 15.4942 26.8529 14.5423 27.311 13.712C27.769 12.8675 28.3917 12.209 29.179 11.7366C29.9663 11.2499 30.861 11.0066 31.863 11.0066C32.6646 11.0066 33.366 11.1569 33.9673 11.4575C34.5683 11.7581 35.0553 12.1804 35.4273 12.7243V7.20508H38.1756V21.9143H35.728L35.4273 20.3898C35.0836 20.8622 34.6256 21.2773 34.0533 21.6352C33.495 21.993 32.7648 22.172 31.863 22.172ZM32.4427 19.7671C33.3303 19.7671 34.0533 19.4737 34.6113 18.8868C35.184 18.2856 35.4703 17.5197 35.4703 16.5893C35.4703 15.6588 35.184 14.9002 34.6113 14.3133C34.0533 13.712 33.3303 13.4114 32.4427 13.4114C31.5696 13.4114 30.8467 13.7049 30.2741 14.2918C29.7015 14.8787 29.4152 15.6374 29.4152 16.5678C29.4152 17.4983 29.7015 18.2641 30.2741 18.8653C30.8467 19.4665 31.5696 19.7671 32.4427 19.7671Z" fill="#013941"/>
<path d="M45.292 22.1717C44.2183 22.1717 43.2666 21.9427 42.4363 21.4846C41.606 21.0266 40.9546 20.3824 40.4823 19.5522C40.01 18.7219 39.7736 17.7628 39.7736 16.6749C39.7736 15.5727 40.003 14.5922 40.461 13.7333C40.9333 12.8744 41.5773 12.2088 42.3933 11.7364C43.2236 11.2497 44.197 11.0063 45.3136 11.0063C46.3586 11.0063 47.2816 11.2354 48.0833 11.6934C48.885 12.1515 49.5076 12.7814 49.9513 13.583C50.4096 14.3703 50.6386 15.2506 50.6386 16.224C50.6386 16.3815 50.6313 16.5461 50.617 16.7179C50.617 16.8897 50.61 17.0686 50.5956 17.2547H42.5006C42.558 18.0849 42.8443 18.7362 43.3596 19.2086C43.8893 19.681 44.5263 19.9172 45.2706 19.9172C45.829 19.9172 46.294 19.7955 46.6663 19.5522C47.0526 19.2945 47.339 18.9653 47.5253 18.5645H50.3166C50.116 19.2372 49.7796 19.8528 49.3073 20.411C48.8493 20.955 48.2766 21.3844 47.5896 21.6994C46.9166 22.0143 46.151 22.1717 45.292 22.1717ZM45.3136 13.2394C44.6406 13.2394 44.0466 13.4327 43.5313 13.8192C43.016 14.1913 42.687 14.7639 42.5436 15.5369H47.8473C47.8043 14.8355 47.5466 14.2772 47.0743 13.8621C46.602 13.447 46.015 13.2394 45.3136 13.2394Z" fill="#013941"/>
<path d="M52.093 21.9141V11.264H54.5193L54.734 13.0676C55.0633 12.4378 55.5356 11.9368 56.1513 11.5646C56.781 11.1924 57.5183 11.0063 58.363 11.0063C59.6796 11.0063 60.7033 11.4215 61.4333 12.2517C62.1633 13.082 62.5283 14.2987 62.5283 15.9019V21.9141H59.78V16.1596C59.78 15.2435 59.594 14.5421 59.2216 14.0554C58.8496 13.5687 58.2696 13.3253 57.4823 13.3253C56.7093 13.3253 56.0723 13.5973 55.5713 14.1412C55.0846 14.6852 54.8413 15.4439 54.8413 16.4173V21.9141H52.093Z" fill="#013941"/>
<path d="M65.1566 21.9141V11.264H67.5829L67.8189 12.7026C68.1626 12.1873 68.6133 11.7793 69.1716 11.4787C69.7443 11.1638 70.4026 11.0063 71.1473 11.0063C72.7933 11.0063 73.9599 11.6433 74.6469 12.9173C75.0336 12.3304 75.5489 11.8652 76.1929 11.5217C76.8516 11.1781 77.5673 11.0063 78.3403 11.0063C79.7286 11.0063 80.7953 11.4215 81.5396 12.2517C82.284 13.082 82.656 14.2987 82.656 15.9019V21.9141H79.9076V16.1596C79.9076 15.2435 79.7286 14.5421 79.3709 14.0554C79.0273 13.5687 78.4906 13.3253 77.7606 13.3253C77.0159 13.3253 76.415 13.5973 75.957 14.1412C75.5129 14.6852 75.2913 15.4439 75.2913 16.4173V21.9141H72.5429V16.1596C72.5429 15.2435 72.3639 14.5421 72.0059 14.0554C71.6483 13.5687 71.0969 13.3253 70.3526 13.3253C69.6226 13.3253 69.0286 13.5973 68.5706 14.1412C68.1266 14.6852 67.9049 15.4439 67.9049 16.4173V21.9141H65.1566Z" fill="#013941"/>
<path d="M88.08 22.1717C87.164 22.1717 86.4123 22.0286 85.8253 21.7423C85.2386 21.4417 84.802 21.048 84.5156 20.5613C84.2293 20.0747 84.0863 19.5379 84.0863 18.951C84.0863 17.9632 84.4726 17.1616 85.2456 16.5461C86.0186 15.9306 87.1783 15.6228 88.724 15.6228H91.4296V15.3651C91.4296 14.6351 91.222 14.0983 90.807 13.7548C90.3916 13.4112 89.8763 13.2394 89.261 13.2394C88.7026 13.2394 88.216 13.3754 87.801 13.6474C87.3856 13.9051 87.128 14.2915 87.028 14.8069H84.344C84.4153 14.0339 84.673 13.3611 85.117 12.7885C85.575 12.2159 86.162 11.7793 86.8776 11.4787C87.5933 11.1638 88.395 11.0063 89.2823 11.0063C90.7996 11.0063 91.995 11.3857 92.8683 12.1444C93.7413 12.903 94.178 13.9766 94.178 15.3651V21.9141H91.8376L91.58 20.1963C91.265 20.7689 90.8213 21.2413 90.2486 21.6135C89.6903 21.9856 88.9676 22.1717 88.08 22.1717ZM88.7026 20.0245C89.49 20.0245 90.0983 19.7669 90.5276 19.2516C90.9716 18.7362 91.2506 18.0992 91.3653 17.3406H89.0246C88.2946 17.3406 87.7723 17.4765 87.4573 17.7485C87.1423 18.0062 86.985 18.3283 86.985 18.7148C86.985 19.1299 87.1423 19.452 87.4573 19.681C87.7723 19.91 88.1873 20.0245 88.7026 20.0245Z" fill="#013941"/>
<path d="M96.8007 21.9141V11.264H99.2487L99.5063 13.2609C99.8927 12.5738 100.415 12.0298 101.074 11.629C101.746 11.2139 102.534 11.0063 103.436 11.0063V13.9051H102.663C102.061 13.9051 101.525 13.9981 101.052 14.1842C100.58 14.3703 100.208 14.6924 99.9357 15.1504C99.678 15.6085 99.5493 16.2455 99.5493 17.0614V21.9141H96.8007Z" fill="#013941"/>
<path d="M104.457 21.9143V7.20508H107.205V15.5801L110.984 11.2642H114.248L109.889 16.1169L114.957 21.9143H111.521L107.205 16.5678V21.9143H104.457Z" fill="#013941"/>
<path d="M15.5799 4.03223H4.74507V7.45726H15.5799C17.1241 7.45726 18.376 8.70916 18.376 10.2535V19.2709C18.376 20.8152 17.1241 22.0671 15.5799 22.0671H4.74507V25.4921H15.5799C19.0157 25.4921 21.8011 22.7068 21.8011 19.2709V10.2535C21.8011 6.81756 19.0157 4.03223 15.5799 4.03223Z" fill="#013941"/>
<path d="M15.0902 10.7965L12.6631 8.37988L4.81687 16.2601L2.45273 13.8857L0.0256348 16.3024L4.81687 21.1143L15.0902 10.7965Z" fill="#013941"/>
</g>
<defs>
<clipPath id="clip0_141_824">
<rect width="117.667" height="30" fill="white" transform="translate(0.0256348 0.603516)"/>
</clipPath>
</defs>
</svg>
