<svg width="25" height="24" viewBox="0 0 25 24" fill="none" xmlns="http://www.w3.org/2000/svg">
<path d="M15.45 12C15.45 12.6329 15.2623 13.2516 14.9107 13.7778C14.5591 14.3041 14.0593 14.7142 13.4746 14.9564C12.8899 15.1986 12.2465 15.262 11.6257 15.1385C11.005 15.015 10.4348 14.7103 9.98726 14.2627C9.53973 13.8152 9.23496 13.245 9.11149 12.6243C8.98801 12.0035 9.05138 11.3601 9.29359 10.7754C9.53579 10.1907 9.94594 9.69092 10.4722 9.3393C10.9984 8.98768 11.6171 8.8 12.25 8.8C13.0979 8.80264 13.9103 9.14063 14.5098 9.74017C15.1094 10.3397 15.4474 11.1521 15.45 12ZM22.25 7.6V16.4C22.25 17.8852 21.66 19.3096 20.6098 20.3598C19.5596 21.41 18.1352 22 16.65 22H7.85C6.36479 22 4.94041 21.41 3.8902 20.3598C2.84 19.3096 2.25 17.8852 2.25 16.4V7.6C2.25 6.11479 2.84 4.69041 3.8902 3.6402C4.94041 2.59 6.36479 2 7.85 2H16.65C18.1352 2 19.5596 2.59 20.6098 3.6402C21.66 4.69041 22.25 6.11479 22.25 7.6ZM17.05 12C17.05 11.0506 16.7685 10.1226 16.2411 9.33326C15.7136 8.54391 14.964 7.92868 14.0869 7.56538C13.2098 7.20208 12.2447 7.10702 11.3136 7.29223C10.3825 7.47744 9.52718 7.9346 8.85589 8.60589C8.1846 9.27718 7.72744 10.1325 7.54223 11.0636C7.35702 11.9947 7.45208 12.9598 7.81538 13.8369C8.17868 14.714 8.79391 15.4636 9.58326 15.9911C10.3726 16.5185 11.3006 16.8 12.25 16.8C13.523 16.8 14.7439 16.2943 15.6441 15.3941C16.5443 14.4939 17.05 13.273 17.05 12ZM18.65 6.8C18.65 6.56266 18.5796 6.33066 18.4478 6.13332C18.3159 5.93598 18.1285 5.78217 17.9092 5.69134C17.6899 5.60052 17.4487 5.57676 17.2159 5.62306C16.9831 5.66936 16.7693 5.78365 16.6015 5.95147C16.4337 6.11929 16.3194 6.33311 16.2731 6.56589C16.2268 6.79867 16.2505 7.03995 16.3413 7.25922C16.4322 7.47849 16.586 7.66591 16.7833 7.79776C16.9807 7.92962 17.2127 8 17.45 8C17.7683 8 18.0735 7.87357 18.2985 7.64853C18.5236 7.42348 18.65 7.11826 18.65 6.8Z" fill="#F6F7F9"/>
</svg>
