<svg width="99" height="31" viewBox="0 0 99 31" fill="none" xmlns="http://www.w3.org/2000/svg">
<g clip-path="url(#clip0_141_851)">
<path d="M35.4619 24.27L29.0892 15.1663L35.4619 7.04688H39.1525L32.7306 15.1663L39.1525 24.27H35.4619ZM25.6937 24.27V7.04688H28.8431V24.27H25.6937ZM43.1892 24.516C42.5332 24.516 41.9345 24.3725 41.3932 24.0855C40.8519 23.7902 40.4212 23.3678 40.1015 22.8183C39.7815 22.2688 39.6215 21.6045 39.6215 20.8254C39.6215 20.1282 39.7815 19.5336 40.1015 19.0415C40.4295 18.5413 40.8559 18.1271 41.3809 17.799C41.9139 17.4628 42.4879 17.2003 43.1032 17.0117C43.7265 16.8148 44.3375 16.6713 44.9362 16.5811C45.5432 16.4909 46.0762 16.4376 46.5355 16.4212C46.5025 15.7158 46.3222 15.2032 45.9942 14.8834C45.6662 14.5635 45.1085 14.4036 44.3212 14.4036C43.7715 14.4036 43.2342 14.4815 42.7095 14.6373C42.1929 14.785 41.6065 15.0187 40.9502 15.3386L40.6795 12.8535C41.4179 12.4927 42.1559 12.222 42.8939 12.0416C43.6402 11.8611 44.3949 11.7709 45.1575 11.7709C46.0762 11.7709 46.8675 11.9349 47.5319 12.263C48.1962 12.5911 48.7089 13.1201 49.0699 13.85C49.4305 14.5717 49.6109 15.5272 49.6109 16.7164V20.038C49.6109 20.6531 49.6399 21.1001 49.6972 21.379C49.7545 21.6496 49.8612 21.8219 50.0169 21.8957C50.1729 21.9695 50.3985 22.0064 50.6935 22.0064H51.0872L50.8165 24.516H49.7095C49.2502 24.516 48.8402 24.4545 48.4792 24.3315C48.1265 24.2167 47.8232 24.0527 47.5689 23.8394C47.3145 23.6262 47.1095 23.376 46.9539 23.089C46.5519 23.5401 46.0065 23.8927 45.3175 24.147C44.6369 24.393 43.9275 24.516 43.1892 24.516ZM44.4685 22.1786C44.7392 22.1786 45.0755 22.1089 45.4775 21.9695C45.8792 21.8219 46.2402 21.5963 46.5602 21.2929V18.4879C45.9859 18.5125 45.4119 18.6069 44.8379 18.7709C44.2635 18.9349 43.7839 19.1769 43.3985 19.4967C43.0129 19.8166 42.8202 20.2185 42.8202 20.7023C42.8202 21.2026 42.9515 21.5758 43.2139 21.8219C43.4762 22.0597 43.8945 22.1786 44.4685 22.1786ZM52.7862 24.27V11.9678H55.6402L55.7632 14.256L55.0499 13.321C55.5172 12.9273 56.0749 12.5706 56.7229 12.2507C57.3709 11.9308 58.1252 11.7709 58.9865 11.7709C60.5612 11.7709 61.7299 12.2958 62.4925 13.3456C63.2555 14.3872 63.6369 15.7404 63.6369 17.4053V24.27H60.5859V17.6514C60.5859 16.5032 60.3932 15.6543 60.0075 15.1048C59.6302 14.5553 59.0112 14.2806 58.1499 14.2806C57.4529 14.2806 56.8829 14.4528 56.4399 14.7973C55.9972 15.1335 55.6075 15.5846 55.2712 16.1505L55.8372 14.6496V24.27H52.7862ZM69.8559 24.516C69.0439 24.516 68.3099 24.4381 67.6535 24.2823C67.0055 24.1265 66.3535 23.9009 65.6975 23.6057L65.9682 20.9976C66.5999 21.3667 67.2189 21.666 67.8259 21.8957C68.4409 22.1171 69.0849 22.2278 69.7572 22.2278C70.3642 22.2278 70.8275 22.1294 71.1475 21.9326C71.4672 21.7357 71.6272 21.4241 71.6272 20.9976C71.6272 20.6777 71.5412 20.4153 71.3689 20.2103C71.2049 20.0052 70.9549 19.8207 70.6185 19.6567C70.2822 19.4926 69.8639 19.3163 69.3635 19.1277C68.6092 18.8488 67.9652 18.5454 67.4322 18.2173C66.9072 17.8892 66.5055 17.4956 66.2265 17.0363C65.9559 16.5688 65.8205 15.9947 65.8205 15.314C65.8205 14.6086 66.0052 13.9853 66.3742 13.444C66.7432 12.9027 67.2682 12.4803 67.9489 12.1769C68.6295 11.8734 69.4375 11.7217 70.3725 11.7217C71.1515 11.7217 71.8485 11.8078 72.4639 11.9801C73.0872 12.1523 73.6612 12.386 74.1862 12.6813L73.9155 15.2894C73.3659 14.9039 72.8122 14.5881 72.2545 14.3421C71.6969 14.0878 71.0859 13.9607 70.4215 13.9607C69.8969 13.9607 69.4909 14.0673 69.2035 14.2806C68.9165 14.4938 68.7732 14.7973 68.7732 15.1909C68.7732 15.6666 68.9742 16.0234 69.3759 16.2612C69.7779 16.4991 70.4215 16.7902 71.3075 17.1347C71.8815 17.3561 72.3775 17.5858 72.7959 17.8236C73.2225 18.0615 73.5752 18.3239 73.8539 18.611C74.1329 18.898 74.3379 19.2261 74.4692 19.5951C74.6085 19.956 74.6782 20.3743 74.6782 20.85C74.6782 21.6291 74.4895 22.2934 74.1122 22.8429C73.7432 23.3842 73.1979 23.7984 72.4762 24.0855C71.7625 24.3725 70.8892 24.516 69.8559 24.516ZM79.4232 24.516C78.7672 24.516 78.1685 24.3725 77.6272 24.0855C77.0859 23.7902 76.6552 23.3678 76.3352 22.8183C76.0155 22.2688 75.8555 21.6045 75.8555 20.8254C75.8555 20.1282 76.0155 19.5336 76.3352 19.0415C76.6635 18.5413 77.0899 18.1271 77.6149 17.799C78.1479 17.4628 78.7219 17.2003 79.3372 17.0117C79.9605 16.8148 80.5715 16.6713 81.1702 16.5811C81.7772 16.4909 82.3102 16.4376 82.7695 16.4212C82.7365 15.7158 82.5562 15.2032 82.2282 14.8834C81.9002 14.5635 81.3422 14.4036 80.5549 14.4036C80.0055 14.4036 79.4682 14.4815 78.9435 14.6373C78.4269 14.785 77.8402 15.0187 77.1842 15.3386L76.9135 12.8535C77.6515 12.4927 78.3899 12.222 79.1279 12.0416C79.8742 11.8611 80.6289 11.7709 81.3915 11.7709C82.3102 11.7709 83.1015 11.9349 83.7659 12.263C84.4302 12.5911 84.9429 13.1201 85.3035 13.85C85.6645 14.5717 85.8449 15.5272 85.8449 16.7164V20.038C85.8449 20.6531 85.8735 21.1001 85.9312 21.379C85.9885 21.6496 86.0952 21.8219 86.2509 21.8957C86.4069 21.9695 86.6322 22.0064 86.9275 22.0064H87.3212L87.0505 24.516H85.9435C85.4842 24.516 85.0742 24.4545 84.7132 24.3315C84.3605 24.2167 84.0572 24.0527 83.8029 23.8394C83.5485 23.6262 83.3435 23.376 83.1875 23.089C82.7859 23.5401 82.2405 23.8927 81.5515 24.147C80.8709 24.393 80.1612 24.516 79.4232 24.516ZM80.7025 22.1786C80.9732 22.1786 81.3095 22.1089 81.7115 21.9695C82.1132 21.8219 82.4742 21.5963 82.7939 21.2929V18.4879C82.2199 18.5125 81.6459 18.6069 81.0719 18.7709C80.4975 18.9349 80.0179 19.1769 79.6322 19.4967C79.2469 19.8166 79.0542 20.2185 79.0542 20.7023C79.0542 21.2026 79.1852 21.5758 79.4479 21.8219C79.7102 22.0597 80.1285 22.1786 80.7025 22.1786ZM92.5139 24.516C91.7019 24.516 90.9679 24.4381 90.3119 24.2823C89.6639 24.1265 89.0119 23.9009 88.3559 23.6057L88.6265 20.9976C89.2579 21.3667 89.8772 21.666 90.4842 21.8957C91.0992 22.1171 91.7429 22.2278 92.4155 22.2278C93.0225 22.2278 93.4859 22.1294 93.8055 21.9326C94.1255 21.7357 94.2855 21.4241 94.2855 20.9976C94.2855 20.6777 94.1992 20.4153 94.0272 20.2103C93.8632 20.0052 93.6129 19.8207 93.2765 19.6567C92.9405 19.4926 92.5222 19.3163 92.0219 19.1277C91.2672 18.8488 90.6235 18.5454 90.0905 18.2173C89.5655 17.8892 89.1635 17.4956 88.8849 17.0363C88.6142 16.5688 88.4789 15.9947 88.4789 15.314C88.4789 14.6086 88.6632 13.9853 89.0325 13.444C89.4015 12.9027 89.9265 12.4803 90.6072 12.1769C91.2879 11.8734 92.0955 11.7217 93.0305 11.7217C93.8099 11.7217 94.5069 11.8078 95.1219 11.9801C95.7452 12.1523 96.3195 12.386 96.8442 12.6813L96.5735 15.2894C96.0242 14.9039 95.4705 14.5881 94.9129 14.3421C94.3552 14.0878 93.7442 13.9607 93.0799 13.9607C92.5549 13.9607 92.1489 14.0673 91.8619 14.2806C91.5749 14.4938 91.4312 14.7973 91.4312 15.1909C91.4312 15.6666 91.6322 16.0234 92.0342 16.2612C92.4362 16.4991 93.0799 16.7902 93.9655 17.1347C94.5399 17.3561 95.0359 17.5858 95.4542 17.8236C95.8805 18.0615 96.2332 18.3239 96.5122 18.611C96.7909 18.898 96.9962 19.2261 97.1272 19.5951C97.2669 19.956 97.3365 20.3743 97.3365 20.85C97.3365 21.6291 97.1479 22.2934 96.7705 22.8429C96.4015 23.3842 95.8562 23.7984 95.1342 24.0855C94.4209 24.3725 93.5472 24.516 92.5139 24.516Z" fill="#013941"/>
<path d="M14.7742 20.2691V5.77588L20.0023 10.9378V25.431H5.50913L0.347168 20.2691H14.7742Z" fill="#013941"/>
<path d="M7.62687 5.77588H0.347168V13.0556H7.62687V5.77588Z" fill="#013941"/>
</g>
<defs>
<clipPath id="clip0_141_851">
<rect width="98" height="30" fill="white" transform="translate(0.347168 0.603516)"/>
</clipPath>
</defs>
</svg>
