<svg width="24" height="24" viewBox="0 0 24 24" fill="none" xmlns="http://www.w3.org/2000/svg">
<path fill-rule="evenodd" clip-rule="evenodd" d="M2.25 3.67091C2.25 3.22776 2.42604 2.80276 2.7394 2.4894C3.05275 2.17604 3.47776 2 3.92091 2H20.5773C20.7969 1.99964 21.0144 2.0426 21.2174 2.12643C21.4204 2.21025 21.6048 2.33328 21.7602 2.48849C21.9156 2.6437 22.0388 2.82802 22.1229 3.03092C22.2069 3.23382 22.2501 3.4513 22.25 3.67091V20.3273C22.2502 20.5469 22.2072 20.7645 22.1232 20.9675C22.0393 21.1705 21.9162 21.3549 21.7609 21.5103C21.6056 21.6656 21.4213 21.7889 21.2183 21.8729C21.0154 21.9569 20.7978 22.0001 20.5782 22H3.92091C3.70141 22 3.48405 21.9568 3.28127 21.8727C3.07849 21.7887 2.89425 21.6655 2.73908 21.5103C2.58391 21.355 2.46085 21.1707 2.37693 20.9679C2.29301 20.7651 2.24988 20.5477 2.25 20.3282V3.67091ZM10.1664 9.62546H12.8745V10.9855C13.2655 10.2036 14.2655 9.5 15.7682 9.5C18.6491 9.5 19.3318 11.0573 19.3318 13.9145V19.2073H16.4164V14.5655C16.4164 12.9382 16.0255 12.02 15.0327 12.02C13.6555 12.02 13.0827 13.01 13.0827 14.5655V19.2073H10.1664V9.62546ZM5.16636 19.0827H8.08273V9.5H5.16636V19.0827ZM8.5 6.37455C8.5055 6.62425 8.46107 6.87254 8.36931 7.10483C8.27755 7.33713 8.14032 7.54876 7.96566 7.7273C7.79101 7.90585 7.58245 8.0477 7.35223 8.14455C7.12201 8.2414 6.87476 8.29129 6.625 8.29129C6.37524 8.29129 6.12799 8.2414 5.89777 8.14455C5.66755 8.0477 5.45899 7.90585 5.28433 7.7273C5.10968 7.54876 4.97245 7.33713 4.88069 7.10483C4.78893 6.87254 4.7445 6.62425 4.75 6.37455C4.76079 5.88441 4.96308 5.41799 5.31353 5.07517C5.66399 4.73235 6.13475 4.54038 6.625 4.54038C7.11525 4.54038 7.58601 4.73235 7.93647 5.07517C8.28692 5.41799 8.48921 5.88441 8.5 6.37455Z" fill="#F6F7F9"/>
</svg>
