<svg width="99" height="31" viewBox="0 0 99 31" fill="none" xmlns="http://www.w3.org/2000/svg">
<path d="M91.1833 24.8091C90.4634 24.8091 89.8715 24.6011 89.4078 24.1852C88.9598 23.7534 88.736 23.2255 88.736 22.6016C88.736 21.9618 88.9598 21.4259 89.4078 20.994C89.8715 20.5621 90.4634 20.3462 91.1833 20.3462C91.8871 20.3462 92.4629 20.5621 92.9109 20.994C93.3748 21.4259 93.6067 21.9618 93.6067 22.6016C93.6067 23.2255 93.3748 23.7534 92.9109 24.1852C92.4629 24.6011 91.8871 24.8091 91.1833 24.8091Z" fill="#013941"/>
<path d="M72.1627 17.8989C72.1627 16.5233 72.4187 15.3156 72.9305 14.2758C73.4585 13.2361 74.1703 12.4363 75.066 11.8764C75.9619 11.3165 76.9616 11.0366 78.0653 11.0366C79.0091 11.0366 79.833 11.2286 80.5368 11.6125C81.2565 11.9964 81.8084 12.5003 82.1923 13.1241V11.2286H86.2952V24.6173H82.1923V22.7217C81.7924 23.3456 81.2325 23.8495 80.5128 24.2334C79.8088 24.6173 78.9851 24.8092 78.0413 24.8092C76.9536 24.8092 75.9619 24.5293 75.066 23.9694C74.1703 23.3936 73.4585 22.5858 72.9305 21.546C72.4187 20.4903 72.1627 19.2746 72.1627 17.8989ZM82.1923 17.9229C82.1923 16.8992 81.9044 16.0914 81.3285 15.4995C80.7686 14.9077 80.0808 14.6117 79.2651 14.6117C78.4492 14.6117 77.7534 14.9077 77.1775 15.4995C76.6176 16.0754 76.3377 16.8752 76.3377 17.8989C76.3377 18.9227 76.6176 19.7385 77.1775 20.3463C77.7534 20.9382 78.4492 21.2341 79.2651 21.2341C80.0808 21.2341 80.7686 20.9382 81.3285 20.3463C81.9044 19.7545 82.1923 18.9467 82.1923 17.9229Z" fill="#013941"/>
<path d="M70.0053 6.86133V24.617H65.9022V6.86133H70.0053Z" fill="#013941"/>
<path d="M60.8894 9.83686C60.1694 9.83686 59.5776 9.62892 59.1139 9.21302C58.6659 8.78112 58.442 8.25324 58.442 7.62941C58.442 6.98956 58.6659 6.46169 59.1139 6.04579C59.5776 5.6139 60.1694 5.39795 60.8894 5.39795C61.5931 5.39795 62.169 5.6139 62.617 6.04579C63.0809 6.46169 63.3127 6.98956 63.3127 7.62941C63.3127 8.25324 63.0809 8.78112 62.617 9.21302C62.169 9.62892 61.5931 9.83686 60.8894 9.83686ZM62.9288 11.2285V24.6172H58.8259V11.2285H62.9288Z" fill="#013941"/>
<path d="M50.8161 11.0845C52.3837 11.0845 53.6314 11.5963 54.5592 12.6201C55.5028 13.6278 55.9747 15.0195 55.9747 16.7951V24.6172H51.8958V17.3469C51.8958 16.4512 51.6639 15.7553 51.2 15.2595C50.7361 14.7636 50.1123 14.5156 49.3283 14.5156C48.5445 14.5156 47.9208 14.7636 47.4569 15.2595C46.9929 15.7553 46.7611 16.4512 46.7611 17.3469V24.6172H42.658V11.2284H46.7611V13.004C47.1769 12.4122 47.7368 11.9483 48.4406 11.6124C49.1446 11.2604 49.9363 11.0845 50.8161 11.0845Z" fill="#013941"/>
<path d="M25.5573 17.8989C25.5573 16.5233 25.8132 15.3156 26.3251 14.2758C26.8529 13.2361 27.5649 12.4363 28.4606 11.8764C29.3563 11.3165 30.356 11.0366 31.4598 11.0366C32.4037 11.0366 33.2273 11.2286 33.9311 11.6125C34.6511 11.9964 35.203 12.5003 35.5869 13.1241V11.2286H39.6898V24.6173H35.5869V22.7217C35.1868 23.3456 34.6271 23.8495 33.9072 24.2334C33.2034 24.6173 32.3795 24.8092 31.4359 24.8092C30.348 24.8092 29.3563 24.5293 28.4606 23.9694C27.5649 23.3936 26.8529 22.5858 26.3251 21.546C25.8132 20.4903 25.5573 19.2746 25.5573 17.8989ZM35.5869 17.9229C35.5869 16.8992 35.299 16.0914 34.7231 15.4995C34.1632 14.9077 33.4754 14.6117 32.6595 14.6117C31.8437 14.6117 31.148 14.9077 30.5721 15.4995C30.0122 16.0754 29.7322 16.8752 29.7322 17.8989C29.7322 18.9227 30.0122 19.7385 30.5721 20.3463C31.148 20.9382 31.8437 21.2341 32.6595 21.2341C33.4754 21.2341 34.1632 20.9382 34.7231 20.3463C35.299 19.7545 35.5869 18.9467 35.5869 17.9229Z" fill="#013941"/>
<path d="M23.4225 7.77295V24.6168H19.3195V14.5153L15.5524 24.6168H12.2412L8.45015 14.4913V24.6168H4.34717V7.77295H9.19397L13.9208 19.4341L18.5997 7.77295H23.4225Z" fill="#013941"/>
</svg>
