<svg width="96" height="31" viewBox="0 0 96 31" fill="none" xmlns="http://www.w3.org/2000/svg">
<g clip-path="url(#clip0_141_855)">
<path d="M39.6381 21.8606H36.6787L31.7293 14.3672V21.8606H28.7701V9.71191H31.7293L36.6787 17.2399V9.71191H39.6381V21.8606Z" fill="#013941"/>
<path d="M41.1946 17.0154C41.1946 16.0232 41.3793 15.1521 41.7485 14.4022C42.1293 13.6523 42.6427 13.0754 43.2888 12.6716C43.9348 12.2678 44.6558 12.0659 45.452 12.0659C46.1326 12.0659 46.7268 12.2043 47.2344 12.4813C47.7537 12.7582 48.1516 13.1216 48.4285 13.5715V12.2043H51.3879V21.861H48.4285V20.4938C48.1401 20.9438 47.7364 21.3072 47.2172 21.5841C46.7096 21.861 46.1153 21.9994 45.4347 21.9994C44.6502 21.9994 43.9348 21.7975 43.2888 21.3937C42.6427 20.9784 42.1293 20.3958 41.7485 19.6459C41.3793 18.8844 41.1946 18.0076 41.1946 17.0154ZM48.4285 17.0327C48.4285 16.2943 48.2209 15.7117 47.8055 15.2848C47.4019 14.8579 46.9057 14.6445 46.3173 14.6445C45.7289 14.6445 45.2269 14.8579 44.8116 15.2848C44.4079 15.7001 44.2059 16.277 44.2059 17.0154C44.2059 17.7537 44.4079 18.3422 44.8116 18.7806C45.2269 19.2075 45.7289 19.4209 46.3173 19.4209C46.9057 19.4209 47.4019 19.2075 47.8055 18.7806C48.2209 18.3537 48.4285 17.771 48.4285 17.0327Z" fill="#013941"/>
<path d="M55.017 11.2006C54.498 11.2006 54.0709 11.0506 53.7363 10.7506C53.4134 10.4391 53.2518 10.0584 53.2518 9.60846C53.2518 9.14698 53.4134 8.76626 53.7363 8.46627C54.0709 8.15478 54.498 7.99902 55.017 7.99902C55.5246 7.99902 55.9399 8.15478 56.2631 8.46627C56.5977 8.76626 56.7648 9.14698 56.7648 9.60846C56.7648 10.0584 56.5977 10.4391 56.2631 10.7506C55.9399 11.0506 55.5246 11.2006 55.017 11.2006ZM56.4879 12.2043V21.861H53.5287V12.2043H56.4879Z" fill="#013941"/>
<path d="M61.5917 13.8134C61.938 13.2827 62.3707 12.8673 62.8897 12.5674C63.409 12.2559 63.9859 12.1001 64.6203 12.1001V15.2325H63.8071C63.0685 15.2325 62.515 15.394 62.1456 15.717C61.7764 16.0285 61.5917 16.5823 61.5917 17.3784V21.8606H58.6326V12.2039H61.5917V13.8134Z" fill="#013941"/>
<path d="M70.4307 21.9994C69.4846 21.9994 68.631 21.7975 67.8696 21.3937C67.1196 20.9899 66.5254 20.4131 66.0869 19.6632C65.6601 18.9132 65.4467 18.0364 65.4467 17.0327C65.4467 16.0405 65.666 15.1694 66.1042 14.4195C66.5427 13.6581 67.1428 13.0754 67.9041 12.6716C68.6655 12.2678 69.5194 12.0659 70.4655 12.0659C71.4113 12.0659 72.2652 12.2678 73.0266 12.6716C73.7879 13.0754 74.388 13.6581 74.8265 14.4195C75.2647 15.1694 75.484 16.0405 75.484 17.0327C75.484 18.0249 75.2592 18.9017 74.8092 19.6632C74.3707 20.4131 73.7651 20.9899 72.992 21.3937C72.2306 21.7975 71.3768 21.9994 70.4307 21.9994ZM70.4307 19.4382C70.9962 19.4382 71.4748 19.2305 71.8671 18.8152C72.271 18.3998 72.4727 17.8057 72.4727 17.0327C72.4727 16.2597 72.2766 15.6655 71.8843 15.2502C71.5038 14.8348 71.0307 14.6272 70.4655 14.6272C69.8885 14.6272 69.4096 14.8348 69.0291 15.2502C68.6483 15.654 68.458 16.2481 68.458 17.0327C68.458 17.8057 68.6424 18.3998 69.0115 18.8152C69.3924 19.2305 69.8654 19.4382 70.4307 19.4382Z" fill="#013941"/>
<path d="M80.0131 13.5715C80.29 13.1216 80.6881 12.7581 81.2071 12.4812C81.7264 12.2043 82.3206 12.0659 82.9898 12.0659C83.7857 12.0659 84.507 12.2678 85.153 12.6716C85.7991 13.0754 86.3067 13.6523 86.6758 14.4022C87.0566 15.1521 87.2469 16.0232 87.2469 17.0154C87.2469 18.0075 87.0566 18.8844 86.6758 19.6458C86.3067 20.3957 85.7991 20.9784 85.153 21.3937C84.507 21.7975 83.7857 21.9994 82.9898 21.9994C82.3089 21.9994 81.715 21.8668 81.2071 21.6014C80.6995 21.3245 80.3017 20.9611 80.0131 20.5111V21.861H77.0539V9.05469H80.0131V13.5715ZM84.2356 17.0154C84.2356 16.277 84.0281 15.7001 83.6127 15.2848C83.209 14.8579 82.707 14.6445 82.1072 14.6445C81.5188 14.6445 81.0168 14.8579 80.6014 15.2848C80.1978 15.7116 79.9958 16.2943 79.9958 17.0327C79.9958 17.771 80.1978 18.3537 80.6014 18.7805C81.0168 19.2074 81.5188 19.4209 82.1072 19.4209C82.6956 19.4209 83.1973 19.2074 83.6127 18.7805C84.0281 18.3421 84.2356 17.7537 84.2356 17.0154Z" fill="#013941"/>
<path d="M90.2877 11.2006C89.7686 11.2006 89.3418 11.0506 89.0073 10.7506C88.6841 10.4391 88.5225 10.0584 88.5225 9.60846C88.5225 9.14698 88.6841 8.76626 89.0073 8.46627C89.3418 8.15478 89.7686 7.99902 90.2877 7.99902C90.7955 7.99902 91.2106 8.15478 91.5338 8.46627C91.8684 8.76626 92.0355 9.14698 92.0355 9.60846C92.0355 10.0584 91.8684 10.4391 91.5338 10.7506C91.2106 11.0506 90.7955 11.2006 90.2877 11.2006ZM91.7589 12.2043V21.861H88.7994V12.2043H91.7589Z" fill="#013941"/>
<path fill-rule="evenodd" clip-rule="evenodd" d="M23.9443 27.0776L0.467285 13.244L0.551296 3.77588L24.0283 17.6095L23.9443 27.0776Z" fill="#013941"/>
<path d="M13.9148 3.27832C13.9029 4.62118 14.1556 5.95325 14.6585 7.19846C15.1614 8.44365 15.9046 9.57763 16.8457 10.5356C17.7868 11.4936 18.9074 12.2568 20.1435 12.7817C21.3796 13.3066 22.707 13.5829 24.0498 13.5948L24.1406 3.36905L13.9148 3.27832Z" fill="#013941"/>
<path d="M10.5729 26.8775C10.5848 25.5347 10.3321 24.2026 9.82925 22.9574C9.32636 21.7122 8.58315 20.5782 7.64201 19.6202C6.7009 18.6623 5.58032 17.8991 4.34422 17.3741C3.10814 16.8492 1.78077 16.5729 0.4379 16.561L0.347168 26.7868L10.5729 26.8775Z" fill="#013941"/>
</g>
<defs>
<clipPath id="clip0_141_855">
<rect width="95" height="30" fill="white" transform="translate(0.347168 0.603516)"/>
</clipPath>
</defs>
</svg>
