<svg width="154" height="31" viewBox="0 0 154 31" fill="none" xmlns="http://www.w3.org/2000/svg">
<path d="M33.7661 23.8366V6.00049H37.0274L45.4104 18.5623V6.00049H48.6718V23.8366H45.4104L37.0274 11.3004V23.8366H33.7661Z" fill="#013941"/>
<path d="M56.9199 24.1424C55.6458 24.1424 54.5163 23.8704 53.5311 23.3269C52.5459 22.7834 51.773 22.019 51.2123 21.0338C50.6517 20.0483 50.3715 18.9103 50.3715 17.6194C50.3715 16.3114 50.6432 15.1478 51.1869 14.1286C51.7473 13.1094 52.5118 12.3195 53.4801 11.7589C54.4652 11.1814 55.6204 10.8926 56.9453 10.8926C58.1855 10.8926 59.2809 11.1644 60.2323 11.708C61.1836 12.2515 61.9225 12.9989 62.449 13.9502C62.9928 14.8845 63.2645 15.9292 63.2645 17.0843C63.2645 17.2711 63.256 17.4665 63.2389 17.6703C63.2389 17.8741 63.2304 18.0864 63.2135 18.3074H53.6075C53.6754 19.2926 54.0151 20.0655 54.6268 20.6259C55.2551 21.1866 56.0111 21.4668 56.8945 21.4668C57.5569 21.4668 58.1089 21.3224 58.5506 21.0338C59.0092 20.7279 59.3489 20.3372 59.5699 19.8617H62.8823C62.6444 20.66 62.2452 21.3904 61.6846 22.0528C61.1411 22.6983 60.4617 23.2079 59.6463 23.5817C58.848 23.9555 57.9392 24.1424 56.9199 24.1424ZM56.9453 13.5425C56.147 13.5425 55.442 13.7718 54.8306 14.2305C54.2189 14.6721 53.8282 15.3516 53.6585 16.2689H59.9521C59.9011 15.4365 59.5952 14.7741 59.0348 14.2814C58.4742 13.7888 57.7777 13.5425 56.9453 13.5425Z" fill="#013941"/>
<path d="M62.665 23.8364L67.2513 17.5173L62.665 11.1982H66.1559L69.3662 15.6827L72.5512 11.1982H76.0675L71.4556 17.5173L76.0675 23.8364H72.5512L69.3662 19.352L66.1559 23.8364H62.665Z" fill="#013941"/>
<path d="M82.5027 23.8366C81.1776 23.8366 80.116 23.5139 79.3175 22.8684C78.5192 22.2228 78.12 21.0762 78.12 19.4285V13.9248H75.9543V11.1984H78.12L78.5022 7.80957H81.3814V11.1984H84.7958V13.9248H81.3814V19.4539C81.3814 20.0656 81.5088 20.4901 81.7636 20.728C82.0354 20.9487 82.494 21.0592 83.1395 21.0592H84.7194V23.8366H82.5027Z" fill="#013941"/>
<path d="M86.3218 23.8365V11.1983H89.2013L89.4815 12.9055C89.8891 12.294 90.4243 11.8099 91.0868 11.4531C91.7661 11.0794 92.5475 10.8926 93.4309 10.8926C95.3844 10.8926 96.7687 11.6485 97.5842 13.1603C98.0428 12.4639 98.6542 11.9118 99.4187 11.5041C100.2 11.0964 101.049 10.8926 101.967 10.8926C103.615 10.8926 104.88 11.3852 105.763 12.3704C106.646 13.3557 107.088 14.7995 107.088 16.702V23.8365H103.827V17.0078C103.827 15.9207 103.615 15.0883 103.19 14.5108C102.782 13.9332 102.145 13.6444 101.279 13.6444C100.395 13.6444 99.682 13.9672 99.1385 14.6127C98.6119 15.2582 98.3486 16.1585 98.3486 17.3136V23.8365H95.087V17.0078C95.087 15.9207 94.8747 15.0883 94.4502 14.5108C94.0254 13.9332 93.3714 13.6444 92.488 13.6444C91.6218 13.6444 90.9168 13.9672 90.3733 14.6127C89.8468 15.2582 89.5835 16.1585 89.5835 17.3136V23.8365H86.3218Z" fill="#013941"/>
<path d="M114.975 24.1424C113.752 24.1424 112.648 23.8619 111.663 23.3015C110.694 22.7409 109.921 21.9679 109.344 20.9827C108.783 19.9804 108.503 18.8255 108.503 17.5174C108.503 16.2094 108.792 15.0628 109.369 14.0776C109.947 13.0754 110.72 12.294 111.688 11.7334C112.673 11.1729 113.777 10.8926 115 10.8926C116.207 10.8926 117.294 11.1729 118.262 11.7334C119.247 12.294 120.02 13.0754 120.581 14.0776C121.158 15.0628 121.447 16.2094 121.447 17.5174C121.447 18.8255 121.158 19.9804 120.581 20.9827C120.02 21.9679 119.247 22.7409 118.262 23.3015C117.277 23.8619 116.181 24.1424 114.975 24.1424ZM114.975 21.314C115.824 21.314 116.563 20.9997 117.192 20.3711C117.82 19.7258 118.134 18.7745 118.134 17.5174C118.134 16.2604 117.82 15.3176 117.192 14.6891C116.563 14.0436 115.833 13.7209 115 13.7209C114.134 13.7209 113.387 14.0436 112.758 14.6891C112.147 15.3176 111.841 16.2604 111.841 17.5174C111.841 18.7745 112.147 19.7258 112.758 20.3711C113.387 20.9997 114.126 21.314 114.975 21.314Z" fill="#013941"/>
<path d="M125.881 23.8364L121.244 11.1982H124.658L127.869 20.7532L131.079 11.1982H134.494L129.831 23.8364H125.881Z" fill="#013941"/>
<path d="M140.795 24.1424C139.521 24.1424 138.392 23.8704 137.407 23.3269C136.421 22.7834 135.648 22.019 135.088 21.0338C134.527 20.0483 134.247 18.9103 134.247 17.6194C134.247 16.3114 134.519 15.1478 135.062 14.1286C135.623 13.1094 136.387 12.3195 137.355 11.7589C138.341 11.1814 139.496 10.8926 140.821 10.8926C142.061 10.8926 143.157 11.1644 144.108 11.708C145.059 12.2515 145.798 12.9989 146.324 13.9502C146.868 14.8845 147.14 15.9292 147.14 17.0843C147.14 17.2711 147.131 17.4665 147.115 17.6703C147.115 17.8741 147.106 18.0864 147.089 18.3074H137.483C137.551 19.2926 137.891 20.0655 138.502 20.6259C139.131 21.1866 139.887 21.4668 140.77 21.4668C141.432 21.4668 141.985 21.3224 142.426 21.0338C142.885 20.7279 143.225 20.3372 143.445 19.8617H146.758C146.52 20.66 146.121 21.3904 145.56 22.0528C145.017 22.6983 144.337 23.2079 143.522 23.5817C142.723 23.9555 141.815 24.1424 140.795 24.1424ZM140.821 13.5425C140.022 13.5425 139.317 13.7718 138.706 14.2305C138.095 14.6721 137.704 15.3516 137.534 16.2689H143.828C143.777 15.4365 143.471 14.7741 142.91 14.2814C142.35 13.7888 141.653 13.5425 140.821 13.5425Z" fill="#013941"/>
<path d="M17.6838 5.65365V13.7167C17.6838 14.637 16.9377 15.383 16.0174 15.383H7.9544V12.0504H11.9901L7.74988 7.81016L10.1064 5.45361L14.3511 9.6983V5.65365H17.6838Z" fill="#013941"/>
<path d="M27.527 15.4971H19.4639C18.5436 15.4971 17.7976 16.2431 17.7976 17.1634V25.2265H21.1303V21.1904L25.3708 25.4309L27.7272 23.0744L23.4827 18.8296H27.527V15.4971Z" fill="#013941"/>
</svg>
