<svg width="135" height="143" viewBox="0 0 135 143" fill="none" xmlns="http://www.w3.org/2000/svg">
<path d="M43.1762 92.7192V76.4265C43.1762 71.9236 39.5459 68.2801 35.0683 68.2801H18.8525C14.3749 68.2801 10.7446 71.9239 10.7446 76.4265V92.7192C6.26703 92.7192 2.63672 96.3629 2.63672 100.866V125.305C2.63672 129.807 6.26703 133.451 10.7446 133.451H43.1762C47.6538 133.451 51.2841 129.807 51.2841 125.305V100.866C51.2841 96.3626 47.6538 92.7192 43.1762 92.7192ZM31.0143 117.158C31.0143 119.41 29.2012 121.231 26.9604 121.231C24.7196 121.231 22.9065 119.41 22.9065 117.158V109.012C22.9065 106.76 24.7196 104.939 26.9604 104.939C29.2012 104.939 31.0143 106.76 31.0143 109.012V117.158ZM35.0683 92.7192H18.8525V76.4265H35.0683V92.7192ZM54.3957 15.3289C52.159 11.4306 53.4892 6.45061 57.365 4.20705C61.2449 1.94771 66.2013 3.28423 68.4422 7.18251L68.5767 7.4213C69.9545 4.89135 72.5356 3.10933 75.6078 3.10933C78.6799 3.10933 81.2612 4.89135 82.6388 7.4213L82.7734 7.18251C85.0142 3.28423 89.9706 1.94771 93.8505 4.20705C97.7304 6.45061 99.0606 11.4306 96.8198 15.3289L91.8236 29.585H59.392L54.3957 15.3289ZM95.8775 39.7679C95.8775 40.8977 94.9669 41.8045 93.8505 41.8045H57.365C56.2446 41.8045 55.338 40.8975 55.338 39.7679C55.338 38.6384 56.2446 37.7313 57.365 37.7313H93.8505C94.9669 37.7313 95.8775 38.6381 95.8775 39.7679ZM95.8775 33.6581C95.8775 34.7879 94.9669 35.6947 93.8505 35.6947H57.365C56.2446 35.6947 55.338 34.7877 55.338 33.6581C55.338 32.5286 56.2446 31.6216 57.365 31.6216H93.8505C94.9669 31.6216 95.8775 32.5284 95.8775 33.6581ZM124.81 118.081C126.599 111.939 129.806 94.6842 116.654 76.4265C108.039 64.4615 106.772 72.3533 91.8236 43.8411H59.392C50.904 60.0383 46.8263 64.4776 43.3107 67.5006C45.7058 69.7282 47.2301 72.8945 47.2301 76.4267V89.3464C51.9492 91.025 55.338 95.5516 55.338 100.866V125.305C55.338 128.447 54.1185 131.287 52.1749 133.451H131.619C132.07 132.17 132.363 130.81 132.363 129.378C132.363 124.27 129.235 119.903 124.81 118.081ZM117.026 115.79L114.975 122.839C114.975 122.839 114.12 100.866 100.438 84.8274C87.3419 69.4815 86.9778 51.9874 86.9778 51.9874C95.0857 66.8403 99.298 70.9771 104.199 74.9945C106.131 76.5777 107.651 77.8266 110.082 81.1997C121.025 96.3866 118.586 110.452 117.026 115.79Z" fill="#009155"/>
</svg>
