<svg width="115" height="30" viewBox="0 0 115 30" fill="none" xmlns="http://www.w3.org/2000/svg">
<g clip-path="url(#clip0_141_423)">
<path d="M12.7783 29.9513C13.6325 29.5339 16.7686 27.7669 20.4959 23.4225C20.4017 23.4241 20.3059 23.4273 20.2117 23.4273C19.5393 23.4273 18.8361 23.3867 18.1215 23.3039C17.0772 23.1837 16.0508 22.9888 15.0715 22.7257C14.1863 22.4902 13.3288 22.2109 12.5135 21.9007V29.9984C12.6045 30.0049 12.6954 29.9919 12.7783 29.9513Z" fill="#055F6B"/>
<path d="M24.9946 2.93471C24.9767 2.62126 24.6844 2.39714 24.3774 2.45398C24.2085 2.48646 24.0396 2.51569 23.8707 2.54168C22.8508 2.70571 21.8211 2.79179 20.7882 2.78042C20.5332 2.77717 20.2766 2.76743 20.0217 2.75281C20.2848 2.95095 20.5462 3.15396 20.8028 3.36022C22.2272 4.50357 23.515 5.7265 24.6275 6.99491C24.7818 7.16868 24.9312 7.34408 25.0774 7.51948C25.118 5.4569 25.0449 3.77923 24.9946 2.93308V2.93471Z" fill="#013941"/>
<path d="M22.0193 5.87755C21.4232 5.30263 20.7785 4.73095 20.1029 4.18201C19.4191 3.63957 18.711 3.12311 17.9964 2.64563C17.8844 2.57092 17.7723 2.49784 17.6586 2.42313C17.1357 2.30295 16.6208 2.15354 16.1174 1.97002C15.5652 1.76863 15.0276 1.52827 14.5128 1.24892C14.1214 1.03617 13.743 0.799054 13.3824 0.537577C13.2509 0.441756 13.1193 0.341063 12.9943 0.235498C12.8708 0.134805 12.7539 0.00812705 12.5866 -0.00161743C12.5623 -0.00161743 12.5379 0.00325481 12.5152 0.00650297V19.2989C13.6065 19.804 14.7109 20.2263 15.8185 20.5576C17.5709 21.0789 19.234 21.342 20.7622 21.342C20.8857 21.342 21.0107 21.3404 21.1309 21.3372C21.4898 21.3258 21.839 21.2966 22.1784 21.2511C24.1127 18.1426 24.8029 13.3662 25.0124 9.39206C24.6243 8.82526 24.1988 8.2617 23.7294 7.70789C23.161 7.03714 22.6023 6.43786 22.0209 5.87593L22.0193 5.87755Z" fill="#055F6B"/>
<path d="M9.49112 20.5381L9.16955 20.3708L9.16468 20.3676L9.15981 20.3643L8.84311 20.1873C8.77977 20.1516 8.71644 20.1159 8.6531 20.0817C8.50531 20.0005 8.35264 19.9145 8.2081 19.8268L7.5942 19.4597L7.5877 19.4565L7.5812 19.4516L6.98354 19.0667H6.98029L6.97705 19.0635C6.16988 18.5275 5.39519 17.9639 4.67085 17.389H4.6676L4.66436 17.3842C3.92865 16.7816 3.22542 16.1563 2.57254 15.5213C2.42313 15.3752 2.26397 15.2144 2.08532 15.0309L2.08207 15.026L2.07882 15.0211L1.62083 14.5274C1.50552 14.4056 1.39833 14.2822 1.29439 14.162C1.25054 14.11 1.20669 14.0597 1.15959 14.0061L0.938717 13.7511L0.933845 13.7462L0.928973 13.7413L0.716218 13.4815C0.609029 13.3499 0.505088 13.2184 0.402771 13.0868C0.851017 16.473 1.75563 19.9015 3.51288 22.1021C7.73549 27.3852 11.388 29.4852 12.3186 29.948C12.3804 29.9789 12.4453 29.9935 12.5119 29.9984V21.9007C12.4047 21.8601 12.2943 21.8195 12.1887 21.7773C11.2468 21.4054 10.3373 20.988 9.4895 20.5381H9.49112Z" fill="#013941"/>
<path d="M12.1725 0.181894C11.9662 0.34755 11.76 0.509958 11.5423 0.662622C11.1558 0.930595 10.753 1.16933 10.3356 1.38209C9.79482 1.65818 9.23452 1.89205 8.65797 2.08369C7.95474 2.31756 7.23365 2.48971 6.50281 2.6034C5.62906 2.74144 4.74394 2.79666 3.86044 2.78042C2.80641 2.76418 1.75725 2.64725 0.72109 2.45398C0.412514 2.39551 0.121804 2.61801 0.102315 2.93309C0.0503447 3.77923 -0.0276111 5.45853 0.0097427 7.52274C0.0860744 7.70301 0.167278 7.88328 0.253355 8.06518C0.899738 9.41804 1.78973 10.7644 2.89898 12.0653C3.46903 12.7328 4.02934 13.3288 4.61238 13.8859C5.21005 14.4592 5.85643 15.026 6.53205 15.5701C7.22228 16.1206 7.92713 16.6387 8.62711 17.1113C9.31897 17.5774 10.0563 18.024 10.8813 18.4772C11.4205 18.7727 11.9662 19.0456 12.5152 19.3006V0.00811768C12.3869 0.0259826 12.2715 0.102314 12.1741 0.181894H12.1725Z" fill="#013941"/>
</g>
<path d="M42.5098 22.072H39.0888V5.847H44.6438C48.3508 5.847 50.5508 8.212 50.5508 11.281C50.5508 14.339 48.3288 16.88 44.6438 16.88H42.5098V22.072ZM44.2808 8.487H42.5098V14.24H44.2808C45.9858 14.24 47.1188 13.151 47.1188 11.281C47.1188 9.389 46.0188 8.487 44.2808 8.487Z" fill="#013941"/>
<path d="M52.6774 22.072V10.39H56.0984V11.974C56.7694 10.874 57.8914 10.17 59.4644 10.17C60.3994 10.17 60.9384 10.368 61.0704 10.434L60.5094 13.492C60.3774 13.415 59.9044 13.195 59.1894 13.195C56.8464 13.195 56.0984 14.955 56.0984 16.561V22.072H52.6774Z" fill="#013941"/>
<path d="M68.4337 22.325C64.6497 22.325 62.0427 19.806 62.0427 16.231C62.0427 12.656 64.6497 10.181 68.4337 10.181C72.2177 10.181 74.8247 12.656 74.8247 16.231C74.8247 19.806 72.2177 22.325 68.4337 22.325ZM68.4337 19.619C70.2047 19.619 71.3707 18.288 71.3707 16.231C71.3707 14.185 70.2047 12.887 68.4337 12.887C66.6627 12.887 65.4967 14.185 65.4967 16.231C65.4967 18.288 66.6627 19.619 68.4337 19.619Z" fill="#013941"/>
<path d="M85.0177 20.686C87.1627 20.906 88.6147 21.599 88.6147 23.557C88.6147 25.823 86.3047 27.121 82.2347 27.121C78.2307 27.121 75.9427 25.878 75.9427 23.953C75.9427 23.414 76.0857 22.974 76.2727 22.666L79.3747 23.117C79.2977 23.216 79.1987 23.436 79.1987 23.755C79.1987 24.536 80.4857 24.91 82.3337 24.91C84.2917 24.91 85.4467 24.459 85.4467 23.766C85.4467 23.106 84.6987 22.985 83.8627 22.897L79.4407 22.446C77.8127 22.281 76.6137 21.5 76.6137 20.169C76.6137 19.212 77.3837 18.387 77.9997 18.002C77.0647 17.221 76.5477 16.132 76.5477 14.801C76.5477 12.04 78.9017 10.17 82.0697 10.17C83.7857 10.17 85.2927 10.841 86.0297 11.776L86.1727 10.39H89.1757L87.9547 14.878C87.2617 17.441 85.7327 19.289 82.3447 19.289C81.3657 19.289 80.4857 19.157 79.7267 18.915C79.5727 19.058 79.4407 19.245 79.4407 19.454C79.4407 19.872 79.7817 20.169 80.9037 20.279L85.0177 20.686ZM82.3227 16.792C83.7857 16.792 84.7647 16.066 84.7647 14.757C84.7647 13.492 83.7747 12.733 82.3227 12.733C80.9257 12.733 79.8807 13.503 79.8807 14.79C79.8807 16.066 80.8707 16.792 82.3227 16.792Z" fill="#013941"/>
<path d="M90.8336 22.072V10.39H94.2436V12.183C95.1346 10.929 96.5866 10.17 98.2476 10.17C101.119 10.17 102.461 12.018 102.461 14.757V22.072H99.0616V15.736C99.0616 14.295 98.6216 13.085 96.8066 13.085C95.2116 13.085 94.2436 14.262 94.2436 15.956V22.072H90.8336Z" fill="#013941"/>
<path d="M106.564 8.487C105.508 8.487 104.595 7.904 104.595 6.892C104.595 5.869 105.508 5.286 106.564 5.286C107.62 5.286 108.544 5.869 108.544 6.892C108.544 7.915 107.62 8.487 106.564 8.487ZM104.881 22.072V10.39H108.258V22.072H104.881Z" fill="#013941"/>
<path d="M114.302 4.879V22.072H110.936V4.879H114.302Z" fill="#013941"/>
<defs>
<clipPath id="clip0_141_423">
<rect width="25.0888" height="30" fill="white"/>
</clipPath>
</defs>
</svg>
