<svg width="35" height="35" viewBox="0 0 35 35" fill="none" xmlns="http://www.w3.org/2000/svg">
<path d="M15.3616 16.6298L16.1511 16.1738L15.3619 16.6305C15.3619 16.6302 15.3619 16.6298 15.3616 16.6298ZM16.0502 15.6985C16.0465 15.8608 16.1124 16.017 16.2311 16.1275L16.1511 16.1738L17.8431 15.1969C17.5944 15.0764 17.3216 15.0136 17.0453 15.0123C16.3821 15.0123 16.0502 15.2411 16.0502 15.6985ZM17.8438 15.1969L18.6197 14.7484L17.8431 15.1969C17.8435 15.1969 17.8438 15.1969 17.8438 15.1969ZM25.1973 30.3375C22.7754 31.8154 19.9943 32.5974 17.1576 32.5981C11.77 32.6008 6.77079 29.7926 3.96976 25.1901H3.96598L3.53706 24.4485C-0.479703 16.9157 2.36937 7.55178 9.90123 3.53433C12.1347 2.34296 14.6262 1.71845 17.1572 1.7157C22.4968 1.71296 27.4578 4.47109 30.2743 9.0084H30.2781L30.3354 9.10859C34.778 16.39 32.4769 25.8942 25.1973 30.3375ZM4.28682 24.0158L29.5314 9.43835C26.8694 5.16629 22.1907 2.5708 17.1576 2.57354C9.10172 2.57629 2.57353 9.10962 2.57628 17.1665C2.57731 19.5554 3.16476 21.9073 4.28682 24.0158ZM31.7385 17.1569C31.7423 14.7192 31.1322 12.3193 29.9645 10.1795L4.71334 24.7629C8.91025 31.6362 17.8847 33.8059 24.757 29.608C29.0953 26.9583 31.7405 22.2405 31.7385 17.1569ZM6.00731 11.152V22.0294L6.86515 21.536L15.3616 16.6298C15.202 16.3742 15.1227 16.0767 15.1337 15.7757C15.1203 15.3739 15.2761 14.9852 15.5626 14.7034C15.866 14.4149 16.2537 14.2316 16.6693 14.1802V13.2966H17.57V14.1802C17.9958 14.2471 18.3983 14.418 18.7432 14.6774L18.6203 14.7484L24.8479 11.152L26.3334 10.2941H6.86481C6.39128 10.2941 6.00731 10.6781 6.00731 11.152ZM27.45 12.6206L28.3078 12.1255V23.1618C28.3078 23.6357 27.9238 24.0196 27.45 24.0196H7.71167L9.19745 23.1618L27.45 12.6206ZM19.2675 18.3922C19.2788 18.0737 19.1889 17.7594 19.0101 17.4956L18.1417 17.9982C18.2779 18.1235 18.3537 18.3016 18.35 18.4869C18.35 19.0304 17.9389 19.3018 17.115 19.3018C16.8103 19.3046 16.509 19.2349 16.2362 19.0987L15.3389 19.6165C15.7274 19.9064 16.1865 20.088 16.6682 20.1425V21.0175H17.569V20.1422C18.7013 19.9936 19.2675 19.4099 19.2675 18.3922Z" fill="#013941"/>
</svg>
