<svg width="115" height="31" viewBox="0 0 115 31" fill="none" xmlns="http://www.w3.org/2000/svg">
<g clip-path="url(#clip0_141_947)">
<path d="M12.7783 30.5545C13.6325 30.1371 16.7686 28.3701 20.4959 24.0257C20.4017 24.0273 20.3059 24.0305 20.2117 24.0305C19.5393 24.0305 18.8361 23.9899 18.1215 23.9071C17.0772 23.7869 16.0508 23.592 15.0715 23.3289C14.1864 23.0934 13.3288 22.8141 12.5135 22.5039V30.6016C12.6045 30.6081 12.6954 30.5951 12.7783 30.5545Z" fill="#F5F5F5"/>
<path d="M24.9946 3.53839C24.9767 3.22494 24.6844 3.00082 24.3774 3.05766C24.2085 3.09014 24.0396 3.11938 23.8707 3.14536C22.8508 3.30939 21.8211 3.39547 20.7882 3.3841C20.5332 3.38085 20.2766 3.37111 20.0217 3.35649C20.2848 3.55463 20.5462 3.75764 20.8028 3.9639C22.2272 5.10725 23.515 6.33018 24.6275 7.59859C24.7818 7.77237 24.9312 7.94777 25.0774 8.12317C25.118 6.06059 25.0449 4.38291 24.9946 3.53677V3.53839Z" fill="white"/>
<path d="M22.0193 6.48073C21.4232 5.90581 20.7785 5.33413 20.1028 4.78519C19.4191 4.24275 18.711 3.72629 17.9964 3.24881C17.8843 3.1741 17.7723 3.10102 17.6586 3.02631C17.1356 2.90613 16.6208 2.75672 16.1173 2.5732C15.5652 2.37181 15.0276 2.13145 14.5128 1.8521C14.1214 1.63935 13.7429 1.40223 13.3824 1.14076C13.2508 1.04494 13.1193 0.944243 12.9942 0.838678C12.8708 0.737985 12.7539 0.611307 12.5866 0.601562C12.5622 0.601562 12.5379 0.606435 12.5151 0.609683V19.9021C13.6065 20.4072 14.7109 20.8295 15.8185 21.1608C17.5709 21.6821 19.234 21.9452 20.7622 21.9452C20.8856 21.9452 21.0107 21.9436 21.1309 21.9403C21.4898 21.929 21.839 21.8997 22.1784 21.8543C24.1127 18.7458 24.8029 13.9694 25.0124 9.99524C24.6243 9.42844 24.1988 8.86488 23.7294 8.31107C23.161 7.64032 22.6023 7.04104 22.0209 6.47911L22.0193 6.48073Z" fill="#F5F5F5"/>
<path d="M9.49112 21.1417L9.16955 20.9744L9.16468 20.9712L9.15981 20.9679L8.84311 20.7909C8.77977 20.7552 8.71644 20.7194 8.6531 20.6853C8.50531 20.6041 8.35264 20.5181 8.2081 20.4304L7.5942 20.0633L7.5877 20.0601L7.5812 20.0552L6.98354 19.6703H6.98029L6.97705 19.667C6.16988 19.1311 5.39519 18.5675 4.67085 17.9926H4.6676L4.66436 17.9877C3.92865 17.3852 3.22542 16.7599 2.57254 16.1249C2.42313 15.9788 2.26397 15.818 2.08532 15.6345L2.08207 15.6296L2.07882 15.6247L1.62083 15.131C1.50552 15.0092 1.39833 14.8858 1.29439 14.7656C1.25054 14.7136 1.20669 14.6633 1.15959 14.6097L0.938717 14.3547L0.933845 14.3498L0.928973 14.3449L0.716218 14.0851C0.609029 13.9535 0.505088 13.822 0.402771 13.6904C0.851017 17.0766 1.75563 20.5051 3.51288 22.7057C7.73549 27.9888 11.388 30.0888 12.3186 30.5516C12.3804 30.5825 12.4453 30.5971 12.5119 30.602V22.5043C12.4047 22.4637 12.2943 22.4231 12.1887 22.3809C11.2468 22.009 10.3373 21.5916 9.4895 21.1417H9.49112Z" fill="white"/>
<path d="M12.1725 0.785105C11.9663 0.950761 11.76 1.11317 11.5424 1.26583C11.1558 1.53381 10.7531 1.77255 10.3357 1.9853C9.79487 2.26139 9.23456 2.49526 8.65801 2.6869C7.95479 2.92077 7.2337 3.09292 6.50286 3.20661C5.6291 3.34465 4.74398 3.39987 3.86048 3.38363C2.80645 3.36739 1.7573 3.25046 0.721135 3.05719C0.41256 2.99873 0.12185 3.22122 0.102361 3.5363C0.0503905 4.38244 -0.0275654 6.06174 0.00978848 8.12595C0.0861202 8.30622 0.167324 8.48649 0.2534 8.66839C0.899784 10.0212 1.78978 11.3676 2.89903 12.6685C3.46908 13.336 4.02939 13.932 4.61243 14.4891C5.21009 15.0624 5.85648 15.6292 6.53209 16.1733C7.22233 16.7238 7.92718 17.2419 8.62716 17.7145C9.31901 18.1806 10.0563 18.6272 10.8814 19.0804C11.4206 19.3759 11.9663 19.6488 12.5152 19.9038V0.611328C12.3869 0.629193 12.2716 0.705525 12.1741 0.785105H12.1725Z" fill="white"/>
</g>
<path d="M42.5098 22.6754H39.0888V6.45042H44.6438C48.3508 6.45042 50.5508 8.81542 50.5508 11.8844C50.5508 14.9424 48.3288 17.4834 44.6438 17.4834H42.5098V22.6754ZM44.2808 9.09042H42.5098V14.8434H44.2808C45.9858 14.8434 47.1188 13.7544 47.1188 11.8844C47.1188 9.99242 46.0188 9.09042 44.2808 9.09042Z" fill="white"/>
<path d="M52.6774 22.6754V10.9934H56.0984V12.5774C56.7694 11.4774 57.8914 10.7734 59.4644 10.7734C60.3994 10.7734 60.9384 10.9714 61.0704 11.0374L60.5094 14.0954C60.3774 14.0184 59.9044 13.7984 59.1894 13.7984C56.8464 13.7984 56.0984 15.5584 56.0984 17.1644V22.6754H52.6774Z" fill="white"/>
<path d="M68.4337 22.9284C64.6497 22.9284 62.0427 20.4094 62.0427 16.8344C62.0427 13.2594 64.6497 10.7844 68.4337 10.7844C72.2177 10.7844 74.8247 13.2594 74.8247 16.8344C74.8247 20.4094 72.2177 22.9284 68.4337 22.9284ZM68.4337 20.2224C70.2047 20.2224 71.3707 18.8914 71.3707 16.8344C71.3707 14.7884 70.2047 13.4904 68.4337 13.4904C66.6627 13.4904 65.4967 14.7884 65.4967 16.8344C65.4967 18.8914 66.6627 20.2224 68.4337 20.2224Z" fill="white"/>
<path d="M85.0177 21.2894C87.1627 21.5094 88.6147 22.2024 88.6147 24.1604C88.6147 26.4264 86.3047 27.7244 82.2347 27.7244C78.2307 27.7244 75.9427 26.4814 75.9427 24.5564C75.9427 24.0174 76.0857 23.5774 76.2727 23.2694L79.3747 23.7204C79.2977 23.8194 79.1987 24.0394 79.1987 24.3584C79.1987 25.1394 80.4857 25.5134 82.3337 25.5134C84.2917 25.5134 85.4467 25.0624 85.4467 24.3694C85.4467 23.7094 84.6987 23.5884 83.8627 23.5004L79.4407 23.0494C77.8127 22.8844 76.6137 22.1034 76.6137 20.7724C76.6137 19.8154 77.3837 18.9904 77.9997 18.6054C77.0647 17.8244 76.5477 16.7354 76.5477 15.4044C76.5477 12.6434 78.9017 10.7734 82.0697 10.7734C83.7857 10.7734 85.2927 11.4444 86.0297 12.3794L86.1727 10.9934H89.1757L87.9547 15.4814C87.2617 18.0444 85.7327 19.8924 82.3447 19.8924C81.3657 19.8924 80.4857 19.7604 79.7267 19.5184C79.5727 19.6614 79.4407 19.8484 79.4407 20.0574C79.4407 20.4754 79.7817 20.7724 80.9037 20.8824L85.0177 21.2894ZM82.3227 17.3954C83.7857 17.3954 84.7647 16.6694 84.7647 15.3604C84.7647 14.0954 83.7747 13.3364 82.3227 13.3364C80.9257 13.3364 79.8807 14.1064 79.8807 15.3934C79.8807 16.6694 80.8707 17.3954 82.3227 17.3954Z" fill="white"/>
<path d="M90.8336 22.6754V10.9934H94.2436V12.7864C95.1346 11.5324 96.5866 10.7734 98.2476 10.7734C101.119 10.7734 102.461 12.6214 102.461 15.3604V22.6754H99.0616V16.3394C99.0616 14.8984 98.6216 13.6884 96.8066 13.6884C95.2116 13.6884 94.2436 14.8654 94.2436 16.5594V22.6754H90.8336Z" fill="white"/>
<path d="M106.564 9.09042C105.508 9.09042 104.595 8.50742 104.595 7.49542C104.595 6.47242 105.508 5.88942 106.564 5.88942C107.62 5.88942 108.544 6.47242 108.544 7.49542C108.544 8.51842 107.62 9.09042 106.564 9.09042ZM104.881 22.6754V10.9934H108.258V22.6754H104.881Z" fill="white"/>
<path d="M114.302 5.48242V22.6754H110.936V5.48242H114.302Z" fill="white"/>
<defs>
<clipPath id="clip0_141_947">
<rect width="25.0888" height="30" fill="white" transform="translate(0 0.603516)"/>
</clipPath>
</defs>
</svg>
